%FSLAX45Y45*%
G04 Gerber Fmt 4.5, Leading zero omitted, Abs format (unit mm)*
G04 Created by KiCad (PCBNEW 6.0.0) date 2022-03-27 17:34:49*
%MOMM*%
%LPD*%
G01*
G04 APERTURE LIST*
%TA.AperFunction,Profile*%
%ADD10C,0.100000*%
%TD*%
%ADD11C,0.200000*%
G04 APERTURE END LIST*
D10*
X18669000Y-8128000D02*
X9525000Y-8128000D01*
X9525000Y-8128000D02*
X9525000Y-18669000D01*
X9525000Y-18669000D02*
X18669000Y-18669000D01*
X18669000Y-18669000D02*
X18669000Y-8128000D01*
D11*
X9777619Y-18984476D02*
X9777619Y-18784476D01*
X9825238Y-18784476D01*
X9853810Y-18794000D01*
X9872857Y-18813048D01*
X9882381Y-18832095D01*
X9891905Y-18870190D01*
X9891905Y-18898762D01*
X9882381Y-18936857D01*
X9872857Y-18955905D01*
X9853810Y-18974952D01*
X9825238Y-18984476D01*
X9777619Y-18984476D01*
X9977619Y-18984476D02*
X9977619Y-18851143D01*
X9977619Y-18889238D02*
X9987143Y-18870190D01*
X9996667Y-18860667D01*
X10015714Y-18851143D01*
X10034762Y-18851143D01*
X10101429Y-18984476D02*
X10101429Y-18851143D01*
X10101429Y-18784476D02*
X10091905Y-18794000D01*
X10101429Y-18803524D01*
X10110952Y-18794000D01*
X10101429Y-18784476D01*
X10101429Y-18803524D01*
X10225238Y-18984476D02*
X10206190Y-18974952D01*
X10196667Y-18955905D01*
X10196667Y-18784476D01*
X10330000Y-18984476D02*
X10310952Y-18974952D01*
X10301429Y-18955905D01*
X10301429Y-18784476D01*
X10558571Y-18984476D02*
X10558571Y-18784476D01*
X10625238Y-18927333D01*
X10691905Y-18784476D01*
X10691905Y-18984476D01*
X10872857Y-18984476D02*
X10872857Y-18879714D01*
X10863333Y-18860667D01*
X10844286Y-18851143D01*
X10806190Y-18851143D01*
X10787143Y-18860667D01*
X10872857Y-18974952D02*
X10853810Y-18984476D01*
X10806190Y-18984476D01*
X10787143Y-18974952D01*
X10777619Y-18955905D01*
X10777619Y-18936857D01*
X10787143Y-18917810D01*
X10806190Y-18908286D01*
X10853810Y-18908286D01*
X10872857Y-18898762D01*
X10968095Y-18851143D02*
X10968095Y-19051143D01*
X10968095Y-18860667D02*
X10987143Y-18851143D01*
X11025238Y-18851143D01*
X11044286Y-18860667D01*
X11053810Y-18870190D01*
X11063333Y-18889238D01*
X11063333Y-18946381D01*
X11053810Y-18965429D01*
X11044286Y-18974952D01*
X11025238Y-18984476D01*
X10987143Y-18984476D01*
X10968095Y-18974952D01*
X11149048Y-18965429D02*
X11158571Y-18974952D01*
X11149048Y-18984476D01*
X11139524Y-18974952D01*
X11149048Y-18965429D01*
X11149048Y-18984476D01*
X11149048Y-18860667D02*
X11158571Y-18870190D01*
X11149048Y-18879714D01*
X11139524Y-18870190D01*
X11149048Y-18860667D01*
X11149048Y-18879714D01*
M02*
