M48
; DRILL file {KiCad 6.0.0} date Sun 27 Mar 2022 05:34:47 PM
; FORMAT={-:-/ absolute / metric / decimal}
; #@! TF.CreationDate,2022-03-27T17:34:47-07:00
; #@! TF.GenerationSoftware,Kicad,Pcbnew,6.0.0
; #@! TF.FileFunction,Plated,1,2,PTH
FMAT,2
METRIC
; #@! TA.AperFunction,Plated,PTH,ViaDrill
T1C0.600
; #@! TA.AperFunction,Plated,PTH,ComponentDrill
T2C0.762
; #@! TA.AperFunction,Plated,PTH,ComponentDrill
T3C0.800
; #@! TA.AperFunction,Plated,PTH,ComponentDrill
T4C0.900
; #@! TA.AperFunction,Plated,PTH,ComponentDrill
T5C1.000
; #@! TA.AperFunction,Plated,PTH,ComponentDrill
T6C1.100
; #@! TA.AperFunction,Plated,PTH,ComponentDrill
T7C1.200
; #@! TA.AperFunction,Plated,PTH,ComponentDrill
T8C1.600
; #@! TA.AperFunction,Plated,PTH,ComponentDrill
T9C2.750
%
G90
G05
T1
X120.015Y-107.95
X139.7Y-96.52
T2
X99.06Y-92.075
X99.06Y-97.79
X106.045Y-92.075
X106.045Y-97.79
X158.75Y-111.76
X158.75Y-172.72
X181.61Y-111.76
X181.61Y-172.72
T3
X99.06Y-127.0
X99.06Y-137.16
X99.06Y-146.05
X99.06Y-156.21
X104.14Y-109.855
X104.14Y-120.015
X104.14Y-127.0
X104.14Y-137.16
X109.22Y-102.87
X109.22Y-151.13
X110.49Y-85.63
X110.49Y-87.63
X110.49Y-110.49
X110.49Y-120.65
X111.77Y-137.17
X111.77Y-139.71
X111.77Y-142.25
X111.77Y-144.79
X113.03Y-93.98
X113.03Y-95.98
X115.57Y-110.49
X115.57Y-120.65
X119.38Y-102.87
X119.38Y-151.13
X119.39Y-137.17
X119.39Y-139.71
X119.39Y-142.25
X119.39Y-144.79
X123.19Y-172.72
X123.19Y-182.88
X124.46Y-102.87
X124.46Y-147.32
X124.46Y-157.48
X125.73Y-130.81
X125.73Y-140.97
X129.54Y-162.56
X129.54Y-172.72
X130.81Y-118.11
X130.81Y-124.46
X130.81Y-130.81
X130.81Y-140.97
X130.81Y-147.32
X130.81Y-157.48
X132.08Y-83.82
X134.62Y-102.87
X135.89Y-130.81
X135.89Y-140.97
X137.16Y-146.05
X137.16Y-148.55
X137.16Y-153.67
X137.16Y-156.17
X139.7Y-102.87
X139.7Y-113.03
X140.97Y-118.11
X140.97Y-124.46
X142.24Y-83.82
X142.24Y-132.08
X142.24Y-142.24
X142.24Y-147.32
X142.24Y-157.48
X143.51Y-96.52
X143.51Y-99.02
X147.32Y-83.82
X157.48Y-83.82
X165.1Y-88.265
X165.1Y-90.765
T4
X106.045Y-168.275
X106.045Y-175.895
X127.0Y-107.95
X134.62Y-107.95
X134.62Y-162.56
X134.62Y-167.64
X134.62Y-172.72
X134.62Y-177.8
X142.24Y-162.56
X142.24Y-167.64
X142.24Y-172.72
X142.24Y-177.8
T5
X110.53Y-125.73
X110.53Y-130.81
X115.53Y-125.73
X115.53Y-130.81
X118.07Y-85.13
X118.07Y-90.13
X147.315Y-109.225
X147.315Y-111.765
X147.315Y-114.305
X147.315Y-116.845
X147.315Y-119.385
X147.315Y-121.925
X147.315Y-124.465
X147.315Y-127.005
X147.315Y-129.545
X147.315Y-132.085
X147.315Y-134.625
X147.315Y-137.165
X147.315Y-139.705
X147.315Y-142.245
X147.315Y-144.785
X147.315Y-147.325
X147.315Y-149.865
X147.315Y-152.405
X147.315Y-154.945
X147.315Y-157.485
X149.855Y-109.225
X149.855Y-111.765
X149.855Y-114.305
X149.855Y-116.845
X149.855Y-119.385
X149.855Y-121.925
X149.855Y-124.465
X149.855Y-127.005
X149.855Y-129.545
X149.855Y-132.085
X149.855Y-134.625
X149.855Y-137.165
X149.855Y-139.705
X149.855Y-142.245
X149.855Y-144.785
X149.855Y-147.325
X149.855Y-149.865
X149.855Y-152.405
X149.855Y-154.945
X149.855Y-157.485
T6
X167.64Y-105.085
X170.18Y-105.085
X172.72Y-105.085
X173.99Y-86.36
X173.99Y-88.9
X173.99Y-91.44
T7
X115.587Y-157.68
X115.587Y-182.68
T8
X157.48Y-182.88
X165.1Y-182.88
X172.72Y-182.88
X182.88Y-92.71
X182.88Y-99.06
X182.88Y-105.41
T9
X100.33Y-86.36
X100.33Y-104.14
X100.33Y-162.56
X100.33Y-181.61
X148.59Y-104.14
X148.59Y-162.56
X181.61Y-86.36
X181.61Y-181.61
T0
M30
