%TF.GenerationSoftware,KiCad,Pcbnew,6.0.0*%
%TF.CreationDate,2022-03-27T17:34:43-07:00*%
%TF.ProjectId,PSU,5053552e-6b69-4636-9164-5f7063625858,rev?*%
%TF.SameCoordinates,Original*%
%TF.FileFunction,Legend,Top*%
%TF.FilePolarity,Positive*%
%FSLAX46Y46*%
G04 Gerber Fmt 4.6, Leading zero omitted, Abs format (unit mm)*
G04 Created by KiCad (PCBNEW 6.0.0) date 2022-03-27 17:34:43*
%MOMM*%
%LPD*%
G01*
G04 APERTURE LIST*
G04 Aperture macros list*
%AMRoundRect*
0 Rectangle with rounded corners*
0 $1 Rounding radius*
0 $2 $3 $4 $5 $6 $7 $8 $9 X,Y pos of 4 corners*
0 Add a 4 corners polygon primitive as box body*
4,1,4,$2,$3,$4,$5,$6,$7,$8,$9,$2,$3,0*
0 Add four circle primitives for the rounded corners*
1,1,$1+$1,$2,$3*
1,1,$1+$1,$4,$5*
1,1,$1+$1,$6,$7*
1,1,$1+$1,$8,$9*
0 Add four rect primitives between the rounded corners*
20,1,$1+$1,$2,$3,$4,$5,0*
20,1,$1+$1,$4,$5,$6,$7,0*
20,1,$1+$1,$6,$7,$8,$9,0*
20,1,$1+$1,$8,$9,$2,$3,0*%
G04 Aperture macros list end*
%ADD10C,0.200000*%
%ADD11C,0.150000*%
%ADD12C,0.050000*%
%ADD13C,0.120000*%
%ADD14C,0.254000*%
%ADD15C,0.010000*%
%ADD16C,0.127000*%
%ADD17RoundRect,0.675000X-0.675000X-0.675000X0.675000X-0.675000X0.675000X0.675000X-0.675000X0.675000X0*%
%ADD18R,2.400000X2.400000*%
%ADD19O,2.400000X2.400000*%
%ADD20R,1.800000X1.800000*%
%ADD21O,1.800000X1.800000*%
%ADD22R,1.600000X1.600000*%
%ADD23C,1.600000*%
%ADD24O,1.600000X1.600000*%
%ADD25R,1.800000X1.700000*%
%ADD26R,1.905000X2.000000*%
%ADD27O,1.905000X2.000000*%
%ADD28C,6.000000*%
%ADD29C,2.000000*%
%ADD30RoundRect,0.425000X-0.425000X-0.425000X0.425000X-0.425000X0.425000X0.425000X-0.425000X0.425000X0*%
%ADD31R,1.970000X0.570000*%
%ADD32R,1.700000X1.800000*%
%ADD33R,9.400000X10.800000*%
%ADD34R,4.600000X0.800000*%
%ADD35R,1.700000X1.700000*%
%ADD36O,1.700000X1.700000*%
%ADD37R,2.000000X1.905000*%
%ADD38O,2.000000X1.905000*%
%ADD39R,1.800000X3.600000*%
%ADD40C,1.524000*%
G04 APERTURE END LIST*
D10*
X104600476Y-96289761D02*
X104743333Y-96337380D01*
X104981428Y-96337380D01*
X105076666Y-96289761D01*
X105124285Y-96242142D01*
X105171904Y-96146904D01*
X105171904Y-96051666D01*
X105124285Y-95956428D01*
X105076666Y-95908809D01*
X104981428Y-95861190D01*
X104790952Y-95813571D01*
X104695714Y-95765952D01*
X104648095Y-95718333D01*
X104600476Y-95623095D01*
X104600476Y-95527857D01*
X104648095Y-95432619D01*
X104695714Y-95385000D01*
X104790952Y-95337380D01*
X105029047Y-95337380D01*
X105171904Y-95385000D01*
X105505238Y-95670714D02*
X105695714Y-96337380D01*
X105886190Y-95861190D01*
X106076666Y-96337380D01*
X106267142Y-95670714D01*
X104600476Y-94384761D02*
X104743333Y-94432380D01*
X104981428Y-94432380D01*
X105076666Y-94384761D01*
X105124285Y-94337142D01*
X105171904Y-94241904D01*
X105171904Y-94146666D01*
X105124285Y-94051428D01*
X105076666Y-94003809D01*
X104981428Y-93956190D01*
X104790952Y-93908571D01*
X104695714Y-93860952D01*
X104648095Y-93813333D01*
X104600476Y-93718095D01*
X104600476Y-93622857D01*
X104648095Y-93527619D01*
X104695714Y-93480000D01*
X104790952Y-93432380D01*
X105029047Y-93432380D01*
X105171904Y-93480000D01*
X105505238Y-93765714D02*
X105695714Y-94432380D01*
X105886190Y-93956190D01*
X106076666Y-94432380D01*
X106267142Y-93765714D01*
X98433095Y-96337380D02*
X97956904Y-96337380D01*
X97956904Y-95337380D01*
X98766428Y-95813571D02*
X99099761Y-95813571D01*
X99242619Y-96337380D02*
X98766428Y-96337380D01*
X98766428Y-95337380D01*
X99242619Y-95337380D01*
X99671190Y-96337380D02*
X99671190Y-95337380D01*
X99909285Y-95337380D01*
X100052142Y-95385000D01*
X100147380Y-95480238D01*
X100195000Y-95575476D01*
X100242619Y-95765952D01*
X100242619Y-95908809D01*
X100195000Y-96099285D01*
X100147380Y-96194523D01*
X100052142Y-96289761D01*
X99909285Y-96337380D01*
X99671190Y-96337380D01*
X100671190Y-95956428D02*
X101433095Y-95956428D01*
X98433095Y-94432380D02*
X97956904Y-94432380D01*
X97956904Y-93432380D01*
X98766428Y-93908571D02*
X99099761Y-93908571D01*
X99242619Y-94432380D02*
X98766428Y-94432380D01*
X98766428Y-93432380D01*
X99242619Y-93432380D01*
X99671190Y-94432380D02*
X99671190Y-93432380D01*
X99909285Y-93432380D01*
X100052142Y-93480000D01*
X100147380Y-93575238D01*
X100195000Y-93670476D01*
X100242619Y-93860952D01*
X100242619Y-94003809D01*
X100195000Y-94194285D01*
X100147380Y-94289523D01*
X100052142Y-94384761D01*
X99909285Y-94432380D01*
X99671190Y-94432380D01*
X100671190Y-94051428D02*
X101433095Y-94051428D01*
X101052142Y-94432380D02*
X101052142Y-93670476D01*
X181594285Y-95321428D02*
X182356190Y-95321428D01*
X181975238Y-95702380D02*
X181975238Y-94940476D01*
X183308571Y-94702380D02*
X182832380Y-94702380D01*
X182784761Y-95178571D01*
X182832380Y-95130952D01*
X182927619Y-95083333D01*
X183165714Y-95083333D01*
X183260952Y-95130952D01*
X183308571Y-95178571D01*
X183356190Y-95273809D01*
X183356190Y-95511904D01*
X183308571Y-95607142D01*
X183260952Y-95654761D01*
X183165714Y-95702380D01*
X182927619Y-95702380D01*
X182832380Y-95654761D01*
X182784761Y-95607142D01*
X183641904Y-94702380D02*
X183975238Y-95702380D01*
X184308571Y-94702380D01*
X181141904Y-101671428D02*
X181903809Y-101671428D01*
X181522857Y-102052380D02*
X181522857Y-101290476D01*
X182856190Y-101052380D02*
X182380000Y-101052380D01*
X182332380Y-101528571D01*
X182380000Y-101480952D01*
X182475238Y-101433333D01*
X182713333Y-101433333D01*
X182808571Y-101480952D01*
X182856190Y-101528571D01*
X182903809Y-101623809D01*
X182903809Y-101861904D01*
X182856190Y-101957142D01*
X182808571Y-102004761D01*
X182713333Y-102052380D01*
X182475238Y-102052380D01*
X182380000Y-102004761D01*
X182332380Y-101957142D01*
X183189523Y-101052380D02*
X183522857Y-102052380D01*
X183856190Y-101052380D01*
X184618095Y-101385714D02*
X184618095Y-102052380D01*
X184189523Y-101385714D02*
X184189523Y-101909523D01*
X184237142Y-102004761D01*
X184332380Y-102052380D01*
X184475238Y-102052380D01*
X184570476Y-102004761D01*
X184618095Y-101957142D01*
X182403809Y-107402380D02*
X182499047Y-107402380D01*
X182594285Y-107450000D01*
X182641904Y-107497619D01*
X182689523Y-107592857D01*
X182737142Y-107783333D01*
X182737142Y-108021428D01*
X182689523Y-108211904D01*
X182641904Y-108307142D01*
X182594285Y-108354761D01*
X182499047Y-108402380D01*
X182403809Y-108402380D01*
X182308571Y-108354761D01*
X182260952Y-108307142D01*
X182213333Y-108211904D01*
X182165714Y-108021428D01*
X182165714Y-107783333D01*
X182213333Y-107592857D01*
X182260952Y-107497619D01*
X182308571Y-107450000D01*
X182403809Y-107402380D01*
X183022857Y-107402380D02*
X183356190Y-108402380D01*
X183689523Y-107402380D01*
X155313333Y-185872380D02*
X154741904Y-185872380D01*
X155027619Y-185872380D02*
X155027619Y-184872380D01*
X154932380Y-185015238D01*
X154837142Y-185110476D01*
X154741904Y-185158095D01*
X155694285Y-184967619D02*
X155741904Y-184920000D01*
X155837142Y-184872380D01*
X156075238Y-184872380D01*
X156170476Y-184920000D01*
X156218095Y-184967619D01*
X156265714Y-185062857D01*
X156265714Y-185158095D01*
X156218095Y-185300952D01*
X155646666Y-185872380D01*
X156265714Y-185872380D01*
X156551428Y-184872380D02*
X156884761Y-185872380D01*
X157218095Y-184872380D01*
X158313333Y-185872380D02*
X158313333Y-185205714D01*
X158313333Y-184872380D02*
X158265714Y-184920000D01*
X158313333Y-184967619D01*
X158360952Y-184920000D01*
X158313333Y-184872380D01*
X158313333Y-184967619D01*
X158789523Y-185205714D02*
X158789523Y-185872380D01*
X158789523Y-185300952D02*
X158837142Y-185253333D01*
X158932380Y-185205714D01*
X159075238Y-185205714D01*
X159170476Y-185253333D01*
X159218095Y-185348571D01*
X159218095Y-185872380D01*
X159646666Y-184967619D02*
X159694285Y-184920000D01*
X159789523Y-184872380D01*
X160027619Y-184872380D01*
X160122857Y-184920000D01*
X160170476Y-184967619D01*
X160218095Y-185062857D01*
X160218095Y-185158095D01*
X160170476Y-185300952D01*
X159599047Y-185872380D01*
X160218095Y-185872380D01*
X162933333Y-185872380D02*
X162361904Y-185872380D01*
X162647619Y-185872380D02*
X162647619Y-184872380D01*
X162552380Y-185015238D01*
X162457142Y-185110476D01*
X162361904Y-185158095D01*
X163314285Y-184967619D02*
X163361904Y-184920000D01*
X163457142Y-184872380D01*
X163695238Y-184872380D01*
X163790476Y-184920000D01*
X163838095Y-184967619D01*
X163885714Y-185062857D01*
X163885714Y-185158095D01*
X163838095Y-185300952D01*
X163266666Y-185872380D01*
X163885714Y-185872380D01*
X164171428Y-184872380D02*
X164504761Y-185872380D01*
X164838095Y-184872380D01*
X165933333Y-185872380D02*
X165933333Y-185205714D01*
X165933333Y-184872380D02*
X165885714Y-184920000D01*
X165933333Y-184967619D01*
X165980952Y-184920000D01*
X165933333Y-184872380D01*
X165933333Y-184967619D01*
X166409523Y-185205714D02*
X166409523Y-185872380D01*
X166409523Y-185300952D02*
X166457142Y-185253333D01*
X166552380Y-185205714D01*
X166695238Y-185205714D01*
X166790476Y-185253333D01*
X166838095Y-185348571D01*
X166838095Y-185872380D01*
X167838095Y-185872380D02*
X167266666Y-185872380D01*
X167552380Y-185872380D02*
X167552380Y-184872380D01*
X167457142Y-185015238D01*
X167361904Y-185110476D01*
X167266666Y-185158095D01*
X172243809Y-184872380D02*
X172339047Y-184872380D01*
X172434285Y-184920000D01*
X172481904Y-184967619D01*
X172529523Y-185062857D01*
X172577142Y-185253333D01*
X172577142Y-185491428D01*
X172529523Y-185681904D01*
X172481904Y-185777142D01*
X172434285Y-185824761D01*
X172339047Y-185872380D01*
X172243809Y-185872380D01*
X172148571Y-185824761D01*
X172100952Y-185777142D01*
X172053333Y-185681904D01*
X172005714Y-185491428D01*
X172005714Y-185253333D01*
X172053333Y-185062857D01*
X172100952Y-184967619D01*
X172148571Y-184920000D01*
X172243809Y-184872380D01*
X172862857Y-184872380D02*
X173196190Y-185872380D01*
X173529523Y-184872380D01*
D11*
X185872380Y-174964047D02*
X184872380Y-174964047D01*
X185872380Y-174535476D02*
X185348571Y-174535476D01*
X185253333Y-174583095D01*
X185205714Y-174678333D01*
X185205714Y-174821190D01*
X185253333Y-174916428D01*
X185300952Y-174964047D01*
X185205714Y-174202142D02*
X185205714Y-173821190D01*
X184872380Y-174059285D02*
X185729523Y-174059285D01*
X185824761Y-174011666D01*
X185872380Y-173916428D01*
X185872380Y-173821190D01*
X185205714Y-173630714D02*
X185205714Y-173249761D01*
X184872380Y-173487857D02*
X185729523Y-173487857D01*
X185824761Y-173440238D01*
X185872380Y-173345000D01*
X185872380Y-173249761D01*
X185205714Y-172916428D02*
X186205714Y-172916428D01*
X185253333Y-172916428D02*
X185205714Y-172821190D01*
X185205714Y-172630714D01*
X185253333Y-172535476D01*
X185300952Y-172487857D01*
X185396190Y-172440238D01*
X185681904Y-172440238D01*
X185777142Y-172487857D01*
X185824761Y-172535476D01*
X185872380Y-172630714D01*
X185872380Y-172821190D01*
X185824761Y-172916428D01*
X185824761Y-172059285D02*
X185872380Y-171964047D01*
X185872380Y-171773571D01*
X185824761Y-171678333D01*
X185729523Y-171630714D01*
X185681904Y-171630714D01*
X185586666Y-171678333D01*
X185539047Y-171773571D01*
X185539047Y-171916428D01*
X185491428Y-172011666D01*
X185396190Y-172059285D01*
X185348571Y-172059285D01*
X185253333Y-172011666D01*
X185205714Y-171916428D01*
X185205714Y-171773571D01*
X185253333Y-171678333D01*
X185777142Y-171202142D02*
X185824761Y-171154523D01*
X185872380Y-171202142D01*
X185824761Y-171249761D01*
X185777142Y-171202142D01*
X185872380Y-171202142D01*
X185253333Y-171202142D02*
X185300952Y-171154523D01*
X185348571Y-171202142D01*
X185300952Y-171249761D01*
X185253333Y-171202142D01*
X185348571Y-171202142D01*
X184824761Y-170011666D02*
X186110476Y-170868809D01*
X184824761Y-168964047D02*
X186110476Y-169821190D01*
X185205714Y-168202142D02*
X186015238Y-168202142D01*
X186110476Y-168249761D01*
X186158095Y-168297380D01*
X186205714Y-168392619D01*
X186205714Y-168535476D01*
X186158095Y-168630714D01*
X185824761Y-168202142D02*
X185872380Y-168297380D01*
X185872380Y-168487857D01*
X185824761Y-168583095D01*
X185777142Y-168630714D01*
X185681904Y-168678333D01*
X185396190Y-168678333D01*
X185300952Y-168630714D01*
X185253333Y-168583095D01*
X185205714Y-168487857D01*
X185205714Y-168297380D01*
X185253333Y-168202142D01*
X185872380Y-167725952D02*
X185205714Y-167725952D01*
X184872380Y-167725952D02*
X184920000Y-167773571D01*
X184967619Y-167725952D01*
X184920000Y-167678333D01*
X184872380Y-167725952D01*
X184967619Y-167725952D01*
X185205714Y-167392619D02*
X185205714Y-167011666D01*
X184872380Y-167249761D02*
X185729523Y-167249761D01*
X185824761Y-167202142D01*
X185872380Y-167106904D01*
X185872380Y-167011666D01*
X185872380Y-166678333D02*
X184872380Y-166678333D01*
X185872380Y-166249761D02*
X185348571Y-166249761D01*
X185253333Y-166297380D01*
X185205714Y-166392619D01*
X185205714Y-166535476D01*
X185253333Y-166630714D01*
X185300952Y-166678333D01*
X185205714Y-165345000D02*
X185872380Y-165345000D01*
X185205714Y-165773571D02*
X185729523Y-165773571D01*
X185824761Y-165725952D01*
X185872380Y-165630714D01*
X185872380Y-165487857D01*
X185824761Y-165392619D01*
X185777142Y-165345000D01*
X185872380Y-164868809D02*
X184872380Y-164868809D01*
X185253333Y-164868809D02*
X185205714Y-164773571D01*
X185205714Y-164583095D01*
X185253333Y-164487857D01*
X185300952Y-164440238D01*
X185396190Y-164392619D01*
X185681904Y-164392619D01*
X185777142Y-164440238D01*
X185824761Y-164487857D01*
X185872380Y-164583095D01*
X185872380Y-164773571D01*
X185824761Y-164868809D01*
X185777142Y-163964047D02*
X185824761Y-163916428D01*
X185872380Y-163964047D01*
X185824761Y-164011666D01*
X185777142Y-163964047D01*
X185872380Y-163964047D01*
X185824761Y-163059285D02*
X185872380Y-163154523D01*
X185872380Y-163345000D01*
X185824761Y-163440238D01*
X185777142Y-163487857D01*
X185681904Y-163535476D01*
X185396190Y-163535476D01*
X185300952Y-163487857D01*
X185253333Y-163440238D01*
X185205714Y-163345000D01*
X185205714Y-163154523D01*
X185253333Y-163059285D01*
X185872380Y-162487857D02*
X185824761Y-162583095D01*
X185777142Y-162630714D01*
X185681904Y-162678333D01*
X185396190Y-162678333D01*
X185300952Y-162630714D01*
X185253333Y-162583095D01*
X185205714Y-162487857D01*
X185205714Y-162345000D01*
X185253333Y-162249761D01*
X185300952Y-162202142D01*
X185396190Y-162154523D01*
X185681904Y-162154523D01*
X185777142Y-162202142D01*
X185824761Y-162249761D01*
X185872380Y-162345000D01*
X185872380Y-162487857D01*
X185872380Y-161725952D02*
X185205714Y-161725952D01*
X185300952Y-161725952D02*
X185253333Y-161678333D01*
X185205714Y-161583095D01*
X185205714Y-161440238D01*
X185253333Y-161345000D01*
X185348571Y-161297380D01*
X185872380Y-161297380D01*
X185348571Y-161297380D02*
X185253333Y-161249761D01*
X185205714Y-161154523D01*
X185205714Y-161011666D01*
X185253333Y-160916428D01*
X185348571Y-160868809D01*
X185872380Y-160868809D01*
X184824761Y-159678333D02*
X186110476Y-160535476D01*
X185872380Y-159345000D02*
X185205714Y-159345000D01*
X185300952Y-159345000D02*
X185253333Y-159297380D01*
X185205714Y-159202142D01*
X185205714Y-159059285D01*
X185253333Y-158964047D01*
X185348571Y-158916428D01*
X185872380Y-158916428D01*
X185348571Y-158916428D02*
X185253333Y-158868809D01*
X185205714Y-158773571D01*
X185205714Y-158630714D01*
X185253333Y-158535476D01*
X185348571Y-158487857D01*
X185872380Y-158487857D01*
X185872380Y-157583095D02*
X185348571Y-157583095D01*
X185253333Y-157630714D01*
X185205714Y-157725952D01*
X185205714Y-157916428D01*
X185253333Y-158011666D01*
X185824761Y-157583095D02*
X185872380Y-157678333D01*
X185872380Y-157916428D01*
X185824761Y-158011666D01*
X185729523Y-158059285D01*
X185634285Y-158059285D01*
X185539047Y-158011666D01*
X185491428Y-157916428D01*
X185491428Y-157678333D01*
X185443809Y-157583095D01*
X185872380Y-157106904D02*
X185205714Y-157106904D01*
X185396190Y-157106904D02*
X185300952Y-157059285D01*
X185253333Y-157011666D01*
X185205714Y-156916428D01*
X185205714Y-156821190D01*
X185824761Y-156059285D02*
X185872380Y-156154523D01*
X185872380Y-156345000D01*
X185824761Y-156440238D01*
X185777142Y-156487857D01*
X185681904Y-156535476D01*
X185396190Y-156535476D01*
X185300952Y-156487857D01*
X185253333Y-156440238D01*
X185205714Y-156345000D01*
X185205714Y-156154523D01*
X185253333Y-156059285D01*
X185872380Y-155630714D02*
X185205714Y-155630714D01*
X185300952Y-155630714D02*
X185253333Y-155583095D01*
X185205714Y-155487857D01*
X185205714Y-155345000D01*
X185253333Y-155249761D01*
X185348571Y-155202142D01*
X185872380Y-155202142D01*
X185348571Y-155202142D02*
X185253333Y-155154523D01*
X185205714Y-155059285D01*
X185205714Y-154916428D01*
X185253333Y-154821190D01*
X185348571Y-154773571D01*
X185872380Y-154773571D01*
X185205714Y-153868809D02*
X185872380Y-153868809D01*
X185205714Y-154297380D02*
X185729523Y-154297380D01*
X185824761Y-154249761D01*
X185872380Y-154154523D01*
X185872380Y-154011666D01*
X185824761Y-153916428D01*
X185777142Y-153868809D01*
X185205714Y-153392619D02*
X185872380Y-153392619D01*
X185300952Y-153392619D02*
X185253333Y-153345000D01*
X185205714Y-153249761D01*
X185205714Y-153106904D01*
X185253333Y-153011666D01*
X185348571Y-152964047D01*
X185872380Y-152964047D01*
X185872380Y-152487857D02*
X185205714Y-152487857D01*
X185396190Y-152487857D02*
X185300952Y-152440238D01*
X185253333Y-152392619D01*
X185205714Y-152297380D01*
X185205714Y-152202142D01*
X185872380Y-151725952D02*
X185824761Y-151821190D01*
X185777142Y-151868809D01*
X185681904Y-151916428D01*
X185396190Y-151916428D01*
X185300952Y-151868809D01*
X185253333Y-151821190D01*
X185205714Y-151725952D01*
X185205714Y-151583095D01*
X185253333Y-151487857D01*
X185300952Y-151440238D01*
X185396190Y-151392619D01*
X185681904Y-151392619D01*
X185777142Y-151440238D01*
X185824761Y-151487857D01*
X185872380Y-151583095D01*
X185872380Y-151725952D01*
X184824761Y-150249761D02*
X186110476Y-151106904D01*
X184920000Y-149392619D02*
X184872380Y-149487857D01*
X184872380Y-149630714D01*
X184920000Y-149773571D01*
X185015238Y-149868809D01*
X185110476Y-149916428D01*
X185300952Y-149964047D01*
X185443809Y-149964047D01*
X185634285Y-149916428D01*
X185729523Y-149868809D01*
X185824761Y-149773571D01*
X185872380Y-149630714D01*
X185872380Y-149535476D01*
X185824761Y-149392619D01*
X185777142Y-149345000D01*
X185443809Y-149345000D01*
X185443809Y-149535476D01*
X185872380Y-148916428D02*
X185205714Y-148916428D01*
X185396190Y-148916428D02*
X185300952Y-148868809D01*
X185253333Y-148821190D01*
X185205714Y-148725952D01*
X185205714Y-148630714D01*
X185872380Y-147868809D02*
X185348571Y-147868809D01*
X185253333Y-147916428D01*
X185205714Y-148011666D01*
X185205714Y-148202142D01*
X185253333Y-148297380D01*
X185824761Y-147868809D02*
X185872380Y-147964047D01*
X185872380Y-148202142D01*
X185824761Y-148297380D01*
X185729523Y-148345000D01*
X185634285Y-148345000D01*
X185539047Y-148297380D01*
X185491428Y-148202142D01*
X185491428Y-147964047D01*
X185443809Y-147868809D01*
X185824761Y-146964047D02*
X185872380Y-147059285D01*
X185872380Y-147249761D01*
X185824761Y-147345000D01*
X185777142Y-147392619D01*
X185681904Y-147440238D01*
X185396190Y-147440238D01*
X185300952Y-147392619D01*
X185253333Y-147345000D01*
X185205714Y-147249761D01*
X185205714Y-147059285D01*
X185253333Y-146964047D01*
X185824761Y-146154523D02*
X185872380Y-146249761D01*
X185872380Y-146440238D01*
X185824761Y-146535476D01*
X185729523Y-146583095D01*
X185348571Y-146583095D01*
X185253333Y-146535476D01*
X185205714Y-146440238D01*
X185205714Y-146249761D01*
X185253333Y-146154523D01*
X185348571Y-146106904D01*
X185443809Y-146106904D01*
X185539047Y-146583095D01*
X185205714Y-145821190D02*
X185205714Y-145440238D01*
X185872380Y-145678333D02*
X185015238Y-145678333D01*
X184920000Y-145630714D01*
X184872380Y-145535476D01*
X184872380Y-145440238D01*
X185205714Y-144678333D02*
X185872380Y-144678333D01*
X185205714Y-145106904D02*
X185729523Y-145106904D01*
X185824761Y-145059285D01*
X185872380Y-144964047D01*
X185872380Y-144821190D01*
X185824761Y-144725952D01*
X185777142Y-144678333D01*
X185872380Y-144059285D02*
X185824761Y-144154523D01*
X185729523Y-144202142D01*
X184872380Y-144202142D01*
X185872380Y-143678333D02*
X184872380Y-143678333D01*
X184872380Y-143297380D01*
X184920000Y-143202142D01*
X184967619Y-143154523D01*
X185062857Y-143106904D01*
X185205714Y-143106904D01*
X185300952Y-143154523D01*
X185348571Y-143202142D01*
X185396190Y-143297380D01*
X185396190Y-143678333D01*
X185824761Y-142725952D02*
X185872380Y-142583095D01*
X185872380Y-142345000D01*
X185824761Y-142249761D01*
X185777142Y-142202142D01*
X185681904Y-142154523D01*
X185586666Y-142154523D01*
X185491428Y-142202142D01*
X185443809Y-142249761D01*
X185396190Y-142345000D01*
X185348571Y-142535476D01*
X185300952Y-142630714D01*
X185253333Y-142678333D01*
X185158095Y-142725952D01*
X185062857Y-142725952D01*
X184967619Y-142678333D01*
X184920000Y-142630714D01*
X184872380Y-142535476D01*
X184872380Y-142297380D01*
X184920000Y-142154523D01*
X184872380Y-141725952D02*
X185681904Y-141725952D01*
X185777142Y-141678333D01*
X185824761Y-141630714D01*
X185872380Y-141535476D01*
X185872380Y-141345000D01*
X185824761Y-141249761D01*
X185777142Y-141202142D01*
X185681904Y-141154523D01*
X184872380Y-141154523D01*
X185777142Y-140678333D02*
X185824761Y-140630714D01*
X185872380Y-140678333D01*
X185824761Y-140725952D01*
X185777142Y-140678333D01*
X185872380Y-140678333D01*
X185205714Y-139773571D02*
X186015238Y-139773571D01*
X186110476Y-139821190D01*
X186158095Y-139868809D01*
X186205714Y-139964047D01*
X186205714Y-140106904D01*
X186158095Y-140202142D01*
X185824761Y-139773571D02*
X185872380Y-139868809D01*
X185872380Y-140059285D01*
X185824761Y-140154523D01*
X185777142Y-140202142D01*
X185681904Y-140249761D01*
X185396190Y-140249761D01*
X185300952Y-140202142D01*
X185253333Y-140154523D01*
X185205714Y-140059285D01*
X185205714Y-139868809D01*
X185253333Y-139773571D01*
X185872380Y-139297380D02*
X185205714Y-139297380D01*
X184872380Y-139297380D02*
X184920000Y-139345000D01*
X184967619Y-139297380D01*
X184920000Y-139249761D01*
X184872380Y-139297380D01*
X184967619Y-139297380D01*
X185205714Y-138964047D02*
X185205714Y-138583095D01*
X184872380Y-138821190D02*
X185729523Y-138821190D01*
X185824761Y-138773571D01*
X185872380Y-138678333D01*
X185872380Y-138583095D01*
X166935000Y-155414523D02*
X166839761Y-155605000D01*
X166839761Y-155890714D01*
X166935000Y-156176428D01*
X167125476Y-156366904D01*
X167315952Y-156462142D01*
X167696904Y-156557380D01*
X167982619Y-156557380D01*
X168363571Y-156462142D01*
X168554047Y-156366904D01*
X168744523Y-156176428D01*
X168839761Y-155890714D01*
X168839761Y-155700238D01*
X168744523Y-155414523D01*
X168649285Y-155319285D01*
X167982619Y-155319285D01*
X167982619Y-155700238D01*
X168839761Y-154462142D02*
X167506428Y-154462142D01*
X167887380Y-154462142D02*
X167696904Y-154366904D01*
X167601666Y-154271666D01*
X167506428Y-154081190D01*
X167506428Y-153890714D01*
X168839761Y-152366904D02*
X167792142Y-152366904D01*
X167601666Y-152462142D01*
X167506428Y-152652619D01*
X167506428Y-153033571D01*
X167601666Y-153224047D01*
X168744523Y-152366904D02*
X168839761Y-152557380D01*
X168839761Y-153033571D01*
X168744523Y-153224047D01*
X168554047Y-153319285D01*
X168363571Y-153319285D01*
X168173095Y-153224047D01*
X168077857Y-153033571D01*
X168077857Y-152557380D01*
X167982619Y-152366904D01*
X168744523Y-150557380D02*
X168839761Y-150747857D01*
X168839761Y-151128809D01*
X168744523Y-151319285D01*
X168649285Y-151414523D01*
X168458809Y-151509761D01*
X167887380Y-151509761D01*
X167696904Y-151414523D01*
X167601666Y-151319285D01*
X167506428Y-151128809D01*
X167506428Y-150747857D01*
X167601666Y-150557380D01*
X168744523Y-148938333D02*
X168839761Y-149128809D01*
X168839761Y-149509761D01*
X168744523Y-149700238D01*
X168554047Y-149795476D01*
X167792142Y-149795476D01*
X167601666Y-149700238D01*
X167506428Y-149509761D01*
X167506428Y-149128809D01*
X167601666Y-148938333D01*
X167792142Y-148843095D01*
X167982619Y-148843095D01*
X168173095Y-149795476D01*
X167506428Y-148271666D02*
X167506428Y-147509761D01*
X168839761Y-147985952D02*
X167125476Y-147985952D01*
X166935000Y-147890714D01*
X166839761Y-147700238D01*
X166839761Y-147509761D01*
X167506428Y-145985952D02*
X168839761Y-145985952D01*
X167506428Y-146843095D02*
X168554047Y-146843095D01*
X168744523Y-146747857D01*
X168839761Y-146557380D01*
X168839761Y-146271666D01*
X168744523Y-146081190D01*
X168649285Y-145985952D01*
X168839761Y-144747857D02*
X168744523Y-144938333D01*
X168554047Y-145033571D01*
X166839761Y-145033571D01*
X168077857Y-143985952D02*
X168077857Y-142462142D01*
X168744523Y-141605000D02*
X168839761Y-141319285D01*
X168839761Y-140843095D01*
X168744523Y-140652619D01*
X168649285Y-140557380D01*
X168458809Y-140462142D01*
X168268333Y-140462142D01*
X168077857Y-140557380D01*
X167982619Y-140652619D01*
X167887380Y-140843095D01*
X167792142Y-141224047D01*
X167696904Y-141414523D01*
X167601666Y-141509761D01*
X167411190Y-141605000D01*
X167220714Y-141605000D01*
X167030238Y-141509761D01*
X166935000Y-141414523D01*
X166839761Y-141224047D01*
X166839761Y-140747857D01*
X166935000Y-140462142D01*
X168839761Y-139605000D02*
X166839761Y-139605000D01*
X168839761Y-138747857D02*
X167792142Y-138747857D01*
X167601666Y-138843095D01*
X167506428Y-139033571D01*
X167506428Y-139319285D01*
X167601666Y-139509761D01*
X167696904Y-139605000D01*
X167506428Y-136938333D02*
X168839761Y-136938333D01*
X167506428Y-137795476D02*
X168554047Y-137795476D01*
X168744523Y-137700238D01*
X168839761Y-137509761D01*
X168839761Y-137224047D01*
X168744523Y-137033571D01*
X168649285Y-136938333D01*
X167506428Y-136271666D02*
X167506428Y-135509761D01*
X166839761Y-135985952D02*
X168554047Y-135985952D01*
X168744523Y-135890714D01*
X168839761Y-135700238D01*
X168839761Y-135509761D01*
X168839761Y-133985952D02*
X166839761Y-133985952D01*
X168744523Y-133985952D02*
X168839761Y-134176428D01*
X168839761Y-134557380D01*
X168744523Y-134747857D01*
X168649285Y-134843095D01*
X168458809Y-134938333D01*
X167887380Y-134938333D01*
X167696904Y-134843095D01*
X167601666Y-134747857D01*
X167506428Y-134557380D01*
X167506428Y-134176428D01*
X167601666Y-133985952D01*
X168839761Y-132747857D02*
X168744523Y-132938333D01*
X168649285Y-133033571D01*
X168458809Y-133128809D01*
X167887380Y-133128809D01*
X167696904Y-133033571D01*
X167601666Y-132938333D01*
X167506428Y-132747857D01*
X167506428Y-132462142D01*
X167601666Y-132271666D01*
X167696904Y-132176428D01*
X167887380Y-132081190D01*
X168458809Y-132081190D01*
X168649285Y-132176428D01*
X168744523Y-132271666D01*
X168839761Y-132462142D01*
X168839761Y-132747857D01*
X167506428Y-131414523D02*
X168839761Y-131033571D01*
X167887380Y-130652619D01*
X168839761Y-130271666D01*
X167506428Y-129890714D01*
X167506428Y-129128809D02*
X168839761Y-129128809D01*
X167696904Y-129128809D02*
X167601666Y-129033571D01*
X167506428Y-128843095D01*
X167506428Y-128557380D01*
X167601666Y-128366904D01*
X167792142Y-128271666D01*
X168839761Y-128271666D01*
X172059761Y-157652619D02*
X172059761Y-158795476D01*
X172059761Y-158224047D02*
X170059761Y-158224047D01*
X170345476Y-158414523D01*
X170535952Y-158605000D01*
X170631190Y-158795476D01*
X170250238Y-156890714D02*
X170155000Y-156795476D01*
X170059761Y-156605000D01*
X170059761Y-156128809D01*
X170155000Y-155938333D01*
X170250238Y-155843095D01*
X170440714Y-155747857D01*
X170631190Y-155747857D01*
X170916904Y-155843095D01*
X172059761Y-156985952D01*
X172059761Y-155747857D01*
X170059761Y-155176428D02*
X172059761Y-154509761D01*
X170059761Y-153843095D01*
X172059761Y-150509761D02*
X171107380Y-151176428D01*
X172059761Y-151652619D02*
X170059761Y-151652619D01*
X170059761Y-150890714D01*
X170155000Y-150700238D01*
X170250238Y-150605000D01*
X170440714Y-150509761D01*
X170726428Y-150509761D01*
X170916904Y-150605000D01*
X171012142Y-150700238D01*
X171107380Y-150890714D01*
X171107380Y-151652619D01*
X170726428Y-149652619D02*
X172726428Y-149652619D01*
X170821666Y-149652619D02*
X170726428Y-149462142D01*
X170726428Y-149081190D01*
X170821666Y-148890714D01*
X170916904Y-148795476D01*
X171107380Y-148700238D01*
X171678809Y-148700238D01*
X171869285Y-148795476D01*
X171964523Y-148890714D01*
X172059761Y-149081190D01*
X172059761Y-149462142D01*
X171964523Y-149652619D01*
X172059761Y-147843095D02*
X170726428Y-147843095D01*
X170059761Y-147843095D02*
X170155000Y-147938333D01*
X170250238Y-147843095D01*
X170155000Y-147747857D01*
X170059761Y-147843095D01*
X170250238Y-147843095D01*
X172059761Y-145366904D02*
X170059761Y-145366904D01*
X170059761Y-144605000D01*
X170155000Y-144414523D01*
X170250238Y-144319285D01*
X170440714Y-144224047D01*
X170726428Y-144224047D01*
X170916904Y-144319285D01*
X171012142Y-144414523D01*
X171107380Y-144605000D01*
X171107380Y-145366904D01*
X172059761Y-143081190D02*
X171964523Y-143271666D01*
X171869285Y-143366904D01*
X171678809Y-143462142D01*
X171107380Y-143462142D01*
X170916904Y-143366904D01*
X170821666Y-143271666D01*
X170726428Y-143081190D01*
X170726428Y-142795476D01*
X170821666Y-142605000D01*
X170916904Y-142509761D01*
X171107380Y-142414523D01*
X171678809Y-142414523D01*
X171869285Y-142509761D01*
X171964523Y-142605000D01*
X172059761Y-142795476D01*
X172059761Y-143081190D01*
X170726428Y-141747857D02*
X172059761Y-141366904D01*
X171107380Y-140985952D01*
X172059761Y-140605000D01*
X170726428Y-140224047D01*
X171964523Y-138700238D02*
X172059761Y-138890714D01*
X172059761Y-139271666D01*
X171964523Y-139462142D01*
X171774047Y-139557380D01*
X171012142Y-139557380D01*
X170821666Y-139462142D01*
X170726428Y-139271666D01*
X170726428Y-138890714D01*
X170821666Y-138700238D01*
X171012142Y-138605000D01*
X171202619Y-138605000D01*
X171393095Y-139557380D01*
X172059761Y-137747857D02*
X170726428Y-137747857D01*
X171107380Y-137747857D02*
X170916904Y-137652619D01*
X170821666Y-137557380D01*
X170726428Y-137366904D01*
X170726428Y-137176428D01*
X171964523Y-135081190D02*
X172059761Y-134795476D01*
X172059761Y-134319285D01*
X171964523Y-134128809D01*
X171869285Y-134033571D01*
X171678809Y-133938333D01*
X171488333Y-133938333D01*
X171297857Y-134033571D01*
X171202619Y-134128809D01*
X171107380Y-134319285D01*
X171012142Y-134700238D01*
X170916904Y-134890714D01*
X170821666Y-134985952D01*
X170631190Y-135081190D01*
X170440714Y-135081190D01*
X170250238Y-134985952D01*
X170155000Y-134890714D01*
X170059761Y-134700238D01*
X170059761Y-134224047D01*
X170155000Y-133938333D01*
X170726428Y-132224047D02*
X172059761Y-132224047D01*
X170726428Y-133081190D02*
X171774047Y-133081190D01*
X171964523Y-132985952D01*
X172059761Y-132795476D01*
X172059761Y-132509761D01*
X171964523Y-132319285D01*
X171869285Y-132224047D01*
X170726428Y-131271666D02*
X172726428Y-131271666D01*
X170821666Y-131271666D02*
X170726428Y-131081190D01*
X170726428Y-130700238D01*
X170821666Y-130509761D01*
X170916904Y-130414523D01*
X171107380Y-130319285D01*
X171678809Y-130319285D01*
X171869285Y-130414523D01*
X171964523Y-130509761D01*
X172059761Y-130700238D01*
X172059761Y-131081190D01*
X171964523Y-131271666D01*
X170726428Y-129462142D02*
X172726428Y-129462142D01*
X170821666Y-129462142D02*
X170726428Y-129271666D01*
X170726428Y-128890714D01*
X170821666Y-128700238D01*
X170916904Y-128605000D01*
X171107380Y-128509761D01*
X171678809Y-128509761D01*
X171869285Y-128605000D01*
X171964523Y-128700238D01*
X172059761Y-128890714D01*
X172059761Y-129271666D01*
X171964523Y-129462142D01*
X172059761Y-127366904D02*
X171964523Y-127557380D01*
X171774047Y-127652619D01*
X170059761Y-127652619D01*
X170726428Y-126795476D02*
X172059761Y-126319285D01*
X170726428Y-125843095D02*
X172059761Y-126319285D01*
X172535952Y-126509761D01*
X172631190Y-126605000D01*
X172726428Y-126795476D01*
X182070476Y-102322380D02*
X182070476Y-103036666D01*
X182022857Y-103179523D01*
X181927619Y-103274761D01*
X181784761Y-103322380D01*
X181689523Y-103322380D01*
X183070476Y-103322380D02*
X182499047Y-103322380D01*
X182784761Y-103322380D02*
X182784761Y-102322380D01*
X182689523Y-102465238D01*
X182594285Y-102560476D01*
X182499047Y-102608095D01*
X184022857Y-103322380D02*
X183451428Y-103322380D01*
X183737142Y-103322380D02*
X183737142Y-102322380D01*
X183641904Y-102465238D01*
X183546666Y-102560476D01*
X183451428Y-102608095D01*
X182070476Y-89622380D02*
X182070476Y-90336666D01*
X182022857Y-90479523D01*
X181927619Y-90574761D01*
X181784761Y-90622380D01*
X181689523Y-90622380D01*
X183070476Y-90622380D02*
X182499047Y-90622380D01*
X182784761Y-90622380D02*
X182784761Y-89622380D01*
X182689523Y-89765238D01*
X182594285Y-89860476D01*
X182499047Y-89908095D01*
X183689523Y-89622380D02*
X183784761Y-89622380D01*
X183880000Y-89670000D01*
X183927619Y-89717619D01*
X183975238Y-89812857D01*
X184022857Y-90003333D01*
X184022857Y-90241428D01*
X183975238Y-90431904D01*
X183927619Y-90527142D01*
X183880000Y-90574761D01*
X183784761Y-90622380D01*
X183689523Y-90622380D01*
X183594285Y-90574761D01*
X183546666Y-90527142D01*
X183499047Y-90431904D01*
X183451428Y-90241428D01*
X183451428Y-90003333D01*
X183499047Y-89812857D01*
X183546666Y-89717619D01*
X183594285Y-89670000D01*
X183689523Y-89622380D01*
X182546666Y-95972380D02*
X182546666Y-96686666D01*
X182499047Y-96829523D01*
X182403809Y-96924761D01*
X182260952Y-96972380D01*
X182165714Y-96972380D01*
X183070476Y-96972380D02*
X183260952Y-96972380D01*
X183356190Y-96924761D01*
X183403809Y-96877142D01*
X183499047Y-96734285D01*
X183546666Y-96543809D01*
X183546666Y-96162857D01*
X183499047Y-96067619D01*
X183451428Y-96020000D01*
X183356190Y-95972380D01*
X183165714Y-95972380D01*
X183070476Y-96020000D01*
X183022857Y-96067619D01*
X182975238Y-96162857D01*
X182975238Y-96400952D01*
X183022857Y-96496190D01*
X183070476Y-96543809D01*
X183165714Y-96591428D01*
X183356190Y-96591428D01*
X183451428Y-96543809D01*
X183499047Y-96496190D01*
X183546666Y-96400952D01*
X172386666Y-179792380D02*
X172386666Y-180506666D01*
X172339047Y-180649523D01*
X172243809Y-180744761D01*
X172100952Y-180792380D01*
X172005714Y-180792380D01*
X172767619Y-179792380D02*
X173386666Y-179792380D01*
X173053333Y-180173333D01*
X173196190Y-180173333D01*
X173291428Y-180220952D01*
X173339047Y-180268571D01*
X173386666Y-180363809D01*
X173386666Y-180601904D01*
X173339047Y-180697142D01*
X173291428Y-180744761D01*
X173196190Y-180792380D01*
X172910476Y-180792380D01*
X172815238Y-180744761D01*
X172767619Y-180697142D01*
X157146666Y-179792380D02*
X157146666Y-180506666D01*
X157099047Y-180649523D01*
X157003809Y-180744761D01*
X156860952Y-180792380D01*
X156765714Y-180792380D01*
X157575238Y-179887619D02*
X157622857Y-179840000D01*
X157718095Y-179792380D01*
X157956190Y-179792380D01*
X158051428Y-179840000D01*
X158099047Y-179887619D01*
X158146666Y-179982857D01*
X158146666Y-180078095D01*
X158099047Y-180220952D01*
X157527619Y-180792380D01*
X158146666Y-180792380D01*
X164766666Y-179792380D02*
X164766666Y-180506666D01*
X164719047Y-180649523D01*
X164623809Y-180744761D01*
X164480952Y-180792380D01*
X164385714Y-180792380D01*
X165766666Y-180792380D02*
X165195238Y-180792380D01*
X165480952Y-180792380D02*
X165480952Y-179792380D01*
X165385714Y-179935238D01*
X165290476Y-180030476D01*
X165195238Y-180078095D01*
X111574642Y-170346666D02*
X111622261Y-170394285D01*
X111669880Y-170537142D01*
X111669880Y-170632380D01*
X111622261Y-170775238D01*
X111527023Y-170870476D01*
X111431785Y-170918095D01*
X111241309Y-170965714D01*
X111098452Y-170965714D01*
X110907976Y-170918095D01*
X110812738Y-170870476D01*
X110717500Y-170775238D01*
X110669880Y-170632380D01*
X110669880Y-170537142D01*
X110717500Y-170394285D01*
X110765119Y-170346666D01*
X111669880Y-169394285D02*
X111669880Y-169965714D01*
X111669880Y-169680000D02*
X110669880Y-169680000D01*
X110812738Y-169775238D01*
X110907976Y-169870476D01*
X110955595Y-169965714D01*
X131976904Y-171267380D02*
X131976904Y-170267380D01*
X132215000Y-170267380D01*
X132357857Y-170315000D01*
X132453095Y-170410238D01*
X132500714Y-170505476D01*
X132548333Y-170695952D01*
X132548333Y-170838809D01*
X132500714Y-171029285D01*
X132453095Y-171124523D01*
X132357857Y-171219761D01*
X132215000Y-171267380D01*
X131976904Y-171267380D01*
X133405476Y-170600714D02*
X133405476Y-171267380D01*
X133167380Y-170219761D02*
X132929285Y-170934047D01*
X133548333Y-170934047D01*
X134358095Y-171272380D02*
X134358095Y-170272380D01*
X134929523Y-171272380D02*
X134500952Y-170700952D01*
X134929523Y-170272380D02*
X134358095Y-170843809D01*
X160647142Y-85447142D02*
X160599523Y-85494761D01*
X160456666Y-85542380D01*
X160361428Y-85542380D01*
X160218571Y-85494761D01*
X160123333Y-85399523D01*
X160075714Y-85304285D01*
X160028095Y-85113809D01*
X160028095Y-84970952D01*
X160075714Y-84780476D01*
X160123333Y-84685238D01*
X160218571Y-84590000D01*
X160361428Y-84542380D01*
X160456666Y-84542380D01*
X160599523Y-84590000D01*
X160647142Y-84637619D01*
X161599523Y-85542380D02*
X161028095Y-85542380D01*
X161313809Y-85542380D02*
X161313809Y-84542380D01*
X161218571Y-84685238D01*
X161123333Y-84780476D01*
X161028095Y-84828095D01*
X162551904Y-85542380D02*
X161980476Y-85542380D01*
X162266190Y-85542380D02*
X162266190Y-84542380D01*
X162170952Y-84685238D01*
X162075714Y-84780476D01*
X161980476Y-84828095D01*
X123812380Y-139707857D02*
X123336190Y-140041190D01*
X123812380Y-140279285D02*
X122812380Y-140279285D01*
X122812380Y-139898333D01*
X122860000Y-139803095D01*
X122907619Y-139755476D01*
X123002857Y-139707857D01*
X123145714Y-139707857D01*
X123240952Y-139755476D01*
X123288571Y-139803095D01*
X123336190Y-139898333D01*
X123336190Y-140279285D01*
X123812380Y-138755476D02*
X123812380Y-139326904D01*
X123812380Y-139041190D02*
X122812380Y-139041190D01*
X122955238Y-139136428D01*
X123050476Y-139231666D01*
X123098095Y-139326904D01*
X122812380Y-138136428D02*
X122812380Y-138041190D01*
X122860000Y-137945952D01*
X122907619Y-137898333D01*
X123002857Y-137850714D01*
X123193333Y-137803095D01*
X123431428Y-137803095D01*
X123621904Y-137850714D01*
X123717142Y-137898333D01*
X123764761Y-137945952D01*
X123812380Y-138041190D01*
X123812380Y-138136428D01*
X123764761Y-138231666D01*
X123717142Y-138279285D01*
X123621904Y-138326904D01*
X123431428Y-138374523D01*
X123193333Y-138374523D01*
X123002857Y-138326904D01*
X122907619Y-138279285D01*
X122860000Y-138231666D01*
X122812380Y-138136428D01*
X127622380Y-167806666D02*
X127146190Y-168140000D01*
X127622380Y-168378095D02*
X126622380Y-168378095D01*
X126622380Y-167997142D01*
X126670000Y-167901904D01*
X126717619Y-167854285D01*
X126812857Y-167806666D01*
X126955714Y-167806666D01*
X127050952Y-167854285D01*
X127098571Y-167901904D01*
X127146190Y-167997142D01*
X127146190Y-168378095D01*
X126717619Y-167425714D02*
X126670000Y-167378095D01*
X126622380Y-167282857D01*
X126622380Y-167044761D01*
X126670000Y-166949523D01*
X126717619Y-166901904D01*
X126812857Y-166854285D01*
X126908095Y-166854285D01*
X127050952Y-166901904D01*
X127622380Y-167473333D01*
X127622380Y-166854285D01*
X121272380Y-177966666D02*
X120796190Y-178300000D01*
X121272380Y-178538095D02*
X120272380Y-178538095D01*
X120272380Y-178157142D01*
X120320000Y-178061904D01*
X120367619Y-178014285D01*
X120462857Y-177966666D01*
X120605714Y-177966666D01*
X120700952Y-178014285D01*
X120748571Y-178061904D01*
X120796190Y-178157142D01*
X120796190Y-178538095D01*
X121272380Y-177014285D02*
X121272380Y-177585714D01*
X121272380Y-177300000D02*
X120272380Y-177300000D01*
X120415238Y-177395238D01*
X120510476Y-177490476D01*
X120558095Y-177585714D01*
X148386904Y-175061380D02*
X148386904Y-174061380D01*
X148625000Y-174061380D01*
X148767857Y-174109000D01*
X148863095Y-174204238D01*
X148910714Y-174299476D01*
X148958333Y-174489952D01*
X148958333Y-174632809D01*
X148910714Y-174823285D01*
X148863095Y-174918523D01*
X148767857Y-175013761D01*
X148625000Y-175061380D01*
X148386904Y-175061380D01*
X149815476Y-174061380D02*
X149625000Y-174061380D01*
X149529761Y-174109000D01*
X149482142Y-174156619D01*
X149386904Y-174299476D01*
X149339285Y-174489952D01*
X149339285Y-174870904D01*
X149386904Y-174966142D01*
X149434523Y-175013761D01*
X149529761Y-175061380D01*
X149720238Y-175061380D01*
X149815476Y-175013761D01*
X149863095Y-174966142D01*
X149910714Y-174870904D01*
X149910714Y-174632809D01*
X149863095Y-174537571D01*
X149815476Y-174489952D01*
X149720238Y-174442333D01*
X149529761Y-174442333D01*
X149434523Y-174489952D01*
X149386904Y-174537571D01*
X149339285Y-174632809D01*
X165639761Y-101512619D02*
X165544523Y-101465000D01*
X165449285Y-101369761D01*
X165306428Y-101226904D01*
X165211190Y-101179285D01*
X165115952Y-101179285D01*
X165163571Y-101417380D02*
X165068333Y-101369761D01*
X164973095Y-101274523D01*
X164925476Y-101084047D01*
X164925476Y-100750714D01*
X164973095Y-100560238D01*
X165068333Y-100465000D01*
X165163571Y-100417380D01*
X165354047Y-100417380D01*
X165449285Y-100465000D01*
X165544523Y-100560238D01*
X165592142Y-100750714D01*
X165592142Y-101084047D01*
X165544523Y-101274523D01*
X165449285Y-101369761D01*
X165354047Y-101417380D01*
X165163571Y-101417380D01*
X166544523Y-101417380D02*
X165973095Y-101417380D01*
X166258809Y-101417380D02*
X166258809Y-100417380D01*
X166163571Y-100560238D01*
X166068333Y-100655476D01*
X165973095Y-100703095D01*
X134977142Y-148756666D02*
X135024761Y-148804285D01*
X135072380Y-148947142D01*
X135072380Y-149042380D01*
X135024761Y-149185238D01*
X134929523Y-149280476D01*
X134834285Y-149328095D01*
X134643809Y-149375714D01*
X134500952Y-149375714D01*
X134310476Y-149328095D01*
X134215238Y-149280476D01*
X134120000Y-149185238D01*
X134072380Y-149042380D01*
X134072380Y-148947142D01*
X134120000Y-148804285D01*
X134167619Y-148756666D01*
X134072380Y-148423333D02*
X134072380Y-147804285D01*
X134453333Y-148137619D01*
X134453333Y-147994761D01*
X134500952Y-147899523D01*
X134548571Y-147851904D01*
X134643809Y-147804285D01*
X134881904Y-147804285D01*
X134977142Y-147851904D01*
X135024761Y-147899523D01*
X135072380Y-147994761D01*
X135072380Y-148280476D01*
X135024761Y-148375714D01*
X134977142Y-148423333D01*
X134977142Y-155741666D02*
X135024761Y-155789285D01*
X135072380Y-155932142D01*
X135072380Y-156027380D01*
X135024761Y-156170238D01*
X134929523Y-156265476D01*
X134834285Y-156313095D01*
X134643809Y-156360714D01*
X134500952Y-156360714D01*
X134310476Y-156313095D01*
X134215238Y-156265476D01*
X134120000Y-156170238D01*
X134072380Y-156027380D01*
X134072380Y-155932142D01*
X134120000Y-155789285D01*
X134167619Y-155741666D01*
X134167619Y-155360714D02*
X134120000Y-155313095D01*
X134072380Y-155217857D01*
X134072380Y-154979761D01*
X134120000Y-154884523D01*
X134167619Y-154836904D01*
X134262857Y-154789285D01*
X134358095Y-154789285D01*
X134500952Y-154836904D01*
X135072380Y-155408333D01*
X135072380Y-154789285D01*
X135723333Y-122542380D02*
X135390000Y-122066190D01*
X135151904Y-122542380D02*
X135151904Y-121542380D01*
X135532857Y-121542380D01*
X135628095Y-121590000D01*
X135675714Y-121637619D01*
X135723333Y-121732857D01*
X135723333Y-121875714D01*
X135675714Y-121970952D01*
X135628095Y-122018571D01*
X135532857Y-122066190D01*
X135151904Y-122066190D01*
X136199523Y-122542380D02*
X136390000Y-122542380D01*
X136485238Y-122494761D01*
X136532857Y-122447142D01*
X136628095Y-122304285D01*
X136675714Y-122113809D01*
X136675714Y-121732857D01*
X136628095Y-121637619D01*
X136580476Y-121590000D01*
X136485238Y-121542380D01*
X136294761Y-121542380D01*
X136199523Y-121590000D01*
X136151904Y-121637619D01*
X136104285Y-121732857D01*
X136104285Y-121970952D01*
X136151904Y-122066190D01*
X136199523Y-122113809D01*
X136294761Y-122161428D01*
X136485238Y-122161428D01*
X136580476Y-122113809D01*
X136628095Y-122066190D01*
X136675714Y-121970952D01*
X108402380Y-120657857D02*
X107926190Y-120991190D01*
X108402380Y-121229285D02*
X107402380Y-121229285D01*
X107402380Y-120848333D01*
X107450000Y-120753095D01*
X107497619Y-120705476D01*
X107592857Y-120657857D01*
X107735714Y-120657857D01*
X107830952Y-120705476D01*
X107878571Y-120753095D01*
X107926190Y-120848333D01*
X107926190Y-121229285D01*
X108402380Y-119705476D02*
X108402380Y-120276904D01*
X108402380Y-119991190D02*
X107402380Y-119991190D01*
X107545238Y-120086428D01*
X107640476Y-120181666D01*
X107688095Y-120276904D01*
X107402380Y-119372142D02*
X107402380Y-118705476D01*
X108402380Y-119134047D01*
X159377142Y-83637380D02*
X159043809Y-83161190D01*
X158805714Y-83637380D02*
X158805714Y-82637380D01*
X159186666Y-82637380D01*
X159281904Y-82685000D01*
X159329523Y-82732619D01*
X159377142Y-82827857D01*
X159377142Y-82970714D01*
X159329523Y-83065952D01*
X159281904Y-83113571D01*
X159186666Y-83161190D01*
X158805714Y-83161190D01*
X159758095Y-82732619D02*
X159805714Y-82685000D01*
X159900952Y-82637380D01*
X160139047Y-82637380D01*
X160234285Y-82685000D01*
X160281904Y-82732619D01*
X160329523Y-82827857D01*
X160329523Y-82923095D01*
X160281904Y-83065952D01*
X159710476Y-83637380D01*
X160329523Y-83637380D01*
X160662857Y-82637380D02*
X161281904Y-82637380D01*
X160948571Y-83018333D01*
X161091428Y-83018333D01*
X161186666Y-83065952D01*
X161234285Y-83113571D01*
X161281904Y-83208809D01*
X161281904Y-83446904D01*
X161234285Y-83542142D01*
X161186666Y-83589761D01*
X161091428Y-83637380D01*
X160805714Y-83637380D01*
X160710476Y-83589761D01*
X160662857Y-83542142D01*
X107148333Y-84812142D02*
X107100714Y-84859761D01*
X106957857Y-84907380D01*
X106862619Y-84907380D01*
X106719761Y-84859761D01*
X106624523Y-84764523D01*
X106576904Y-84669285D01*
X106529285Y-84478809D01*
X106529285Y-84335952D01*
X106576904Y-84145476D01*
X106624523Y-84050238D01*
X106719761Y-83955000D01*
X106862619Y-83907380D01*
X106957857Y-83907380D01*
X107100714Y-83955000D01*
X107148333Y-84002619D01*
X107719761Y-84335952D02*
X107624523Y-84288333D01*
X107576904Y-84240714D01*
X107529285Y-84145476D01*
X107529285Y-84097857D01*
X107576904Y-84002619D01*
X107624523Y-83955000D01*
X107719761Y-83907380D01*
X107910238Y-83907380D01*
X108005476Y-83955000D01*
X108053095Y-84002619D01*
X108100714Y-84097857D01*
X108100714Y-84145476D01*
X108053095Y-84240714D01*
X108005476Y-84288333D01*
X107910238Y-84335952D01*
X107719761Y-84335952D01*
X107624523Y-84383571D01*
X107576904Y-84431190D01*
X107529285Y-84526428D01*
X107529285Y-84716904D01*
X107576904Y-84812142D01*
X107624523Y-84859761D01*
X107719761Y-84907380D01*
X107910238Y-84907380D01*
X108005476Y-84859761D01*
X108053095Y-84812142D01*
X108100714Y-84716904D01*
X108100714Y-84526428D01*
X108053095Y-84431190D01*
X108005476Y-84383571D01*
X107910238Y-84335952D01*
X109053333Y-128627142D02*
X109005714Y-128674761D01*
X108862857Y-128722380D01*
X108767619Y-128722380D01*
X108624761Y-128674761D01*
X108529523Y-128579523D01*
X108481904Y-128484285D01*
X108434285Y-128293809D01*
X108434285Y-128150952D01*
X108481904Y-127960476D01*
X108529523Y-127865238D01*
X108624761Y-127770000D01*
X108767619Y-127722380D01*
X108862857Y-127722380D01*
X109005714Y-127770000D01*
X109053333Y-127817619D01*
X109910476Y-127722380D02*
X109720000Y-127722380D01*
X109624761Y-127770000D01*
X109577142Y-127817619D01*
X109481904Y-127960476D01*
X109434285Y-128150952D01*
X109434285Y-128531904D01*
X109481904Y-128627142D01*
X109529523Y-128674761D01*
X109624761Y-128722380D01*
X109815238Y-128722380D01*
X109910476Y-128674761D01*
X109958095Y-128627142D01*
X110005714Y-128531904D01*
X110005714Y-128293809D01*
X109958095Y-128198571D01*
X109910476Y-128150952D01*
X109815238Y-128103333D01*
X109624761Y-128103333D01*
X109529523Y-128150952D01*
X109481904Y-128198571D01*
X109434285Y-128293809D01*
X140152380Y-152566666D02*
X139676190Y-152900000D01*
X140152380Y-153138095D02*
X139152380Y-153138095D01*
X139152380Y-152757142D01*
X139200000Y-152661904D01*
X139247619Y-152614285D01*
X139342857Y-152566666D01*
X139485714Y-152566666D01*
X139580952Y-152614285D01*
X139628571Y-152661904D01*
X139676190Y-152757142D01*
X139676190Y-153138095D01*
X139580952Y-151995238D02*
X139533333Y-152090476D01*
X139485714Y-152138095D01*
X139390476Y-152185714D01*
X139342857Y-152185714D01*
X139247619Y-152138095D01*
X139200000Y-152090476D01*
X139152380Y-151995238D01*
X139152380Y-151804761D01*
X139200000Y-151709523D01*
X139247619Y-151661904D01*
X139342857Y-151614285D01*
X139390476Y-151614285D01*
X139485714Y-151661904D01*
X139533333Y-151709523D01*
X139580952Y-151804761D01*
X139580952Y-151995238D01*
X139628571Y-152090476D01*
X139676190Y-152138095D01*
X139771428Y-152185714D01*
X139961904Y-152185714D01*
X140057142Y-152138095D01*
X140104761Y-152090476D01*
X140152380Y-151995238D01*
X140152380Y-151804761D01*
X140104761Y-151709523D01*
X140057142Y-151661904D01*
X139961904Y-151614285D01*
X139771428Y-151614285D01*
X139676190Y-151661904D01*
X139628571Y-151709523D01*
X139580952Y-151804761D01*
X115927142Y-88431666D02*
X115974761Y-88479285D01*
X116022380Y-88622142D01*
X116022380Y-88717380D01*
X115974761Y-88860238D01*
X115879523Y-88955476D01*
X115784285Y-89003095D01*
X115593809Y-89050714D01*
X115450952Y-89050714D01*
X115260476Y-89003095D01*
X115165238Y-88955476D01*
X115070000Y-88860238D01*
X115022380Y-88717380D01*
X115022380Y-88622142D01*
X115070000Y-88479285D01*
X115117619Y-88431666D01*
X116022380Y-87955476D02*
X116022380Y-87765000D01*
X115974761Y-87669761D01*
X115927142Y-87622142D01*
X115784285Y-87526904D01*
X115593809Y-87479285D01*
X115212857Y-87479285D01*
X115117619Y-87526904D01*
X115070000Y-87574523D01*
X115022380Y-87669761D01*
X115022380Y-87860238D01*
X115070000Y-87955476D01*
X115117619Y-88003095D01*
X115212857Y-88050714D01*
X115450952Y-88050714D01*
X115546190Y-88003095D01*
X115593809Y-87955476D01*
X115641428Y-87860238D01*
X115641428Y-87669761D01*
X115593809Y-87574523D01*
X115546190Y-87526904D01*
X115450952Y-87479285D01*
X113482380Y-120657857D02*
X113006190Y-120991190D01*
X113482380Y-121229285D02*
X112482380Y-121229285D01*
X112482380Y-120848333D01*
X112530000Y-120753095D01*
X112577619Y-120705476D01*
X112672857Y-120657857D01*
X112815714Y-120657857D01*
X112910952Y-120705476D01*
X112958571Y-120753095D01*
X113006190Y-120848333D01*
X113006190Y-121229285D01*
X113482380Y-119705476D02*
X113482380Y-120276904D01*
X113482380Y-119991190D02*
X112482380Y-119991190D01*
X112625238Y-120086428D01*
X112720476Y-120181666D01*
X112768095Y-120276904D01*
X113482380Y-119229285D02*
X113482380Y-119038809D01*
X113434761Y-118943571D01*
X113387142Y-118895952D01*
X113244285Y-118800714D01*
X113053809Y-118753095D01*
X112672857Y-118753095D01*
X112577619Y-118800714D01*
X112530000Y-118848333D01*
X112482380Y-118943571D01*
X112482380Y-119134047D01*
X112530000Y-119229285D01*
X112577619Y-119276904D01*
X112672857Y-119324523D01*
X112910952Y-119324523D01*
X113006190Y-119276904D01*
X113053809Y-119229285D01*
X113101428Y-119134047D01*
X113101428Y-118943571D01*
X113053809Y-118848333D01*
X113006190Y-118800714D01*
X112910952Y-118753095D01*
X135247142Y-116192380D02*
X134913809Y-115716190D01*
X134675714Y-116192380D02*
X134675714Y-115192380D01*
X135056666Y-115192380D01*
X135151904Y-115240000D01*
X135199523Y-115287619D01*
X135247142Y-115382857D01*
X135247142Y-115525714D01*
X135199523Y-115620952D01*
X135151904Y-115668571D01*
X135056666Y-115716190D01*
X134675714Y-115716190D01*
X136199523Y-116192380D02*
X135628095Y-116192380D01*
X135913809Y-116192380D02*
X135913809Y-115192380D01*
X135818571Y-115335238D01*
X135723333Y-115430476D01*
X135628095Y-115478095D01*
X136770952Y-115620952D02*
X136675714Y-115573333D01*
X136628095Y-115525714D01*
X136580476Y-115430476D01*
X136580476Y-115382857D01*
X136628095Y-115287619D01*
X136675714Y-115240000D01*
X136770952Y-115192380D01*
X136961428Y-115192380D01*
X137056666Y-115240000D01*
X137104285Y-115287619D01*
X137151904Y-115382857D01*
X137151904Y-115430476D01*
X137104285Y-115525714D01*
X137056666Y-115573333D01*
X136961428Y-115620952D01*
X136770952Y-115620952D01*
X136675714Y-115668571D01*
X136628095Y-115716190D01*
X136580476Y-115811428D01*
X136580476Y-116001904D01*
X136628095Y-116097142D01*
X136675714Y-116144761D01*
X136770952Y-116192380D01*
X136961428Y-116192380D01*
X137056666Y-116144761D01*
X137104285Y-116097142D01*
X137151904Y-116001904D01*
X137151904Y-115811428D01*
X137104285Y-115716190D01*
X137056666Y-115668571D01*
X136961428Y-115620952D01*
X103806666Y-90257380D02*
X103806666Y-90971666D01*
X103759047Y-91114523D01*
X103663809Y-91209761D01*
X103520952Y-91257380D01*
X103425714Y-91257380D01*
X104187619Y-90257380D02*
X104854285Y-90257380D01*
X104425714Y-91257380D01*
X141327142Y-98412857D02*
X141374761Y-98460476D01*
X141422380Y-98603333D01*
X141422380Y-98698571D01*
X141374761Y-98841428D01*
X141279523Y-98936666D01*
X141184285Y-98984285D01*
X140993809Y-99031904D01*
X140850952Y-99031904D01*
X140660476Y-98984285D01*
X140565238Y-98936666D01*
X140470000Y-98841428D01*
X140422380Y-98698571D01*
X140422380Y-98603333D01*
X140470000Y-98460476D01*
X140517619Y-98412857D01*
X141422380Y-97460476D02*
X141422380Y-98031904D01*
X141422380Y-97746190D02*
X140422380Y-97746190D01*
X140565238Y-97841428D01*
X140660476Y-97936666D01*
X140708095Y-98031904D01*
X140422380Y-96841428D02*
X140422380Y-96746190D01*
X140470000Y-96650952D01*
X140517619Y-96603333D01*
X140612857Y-96555714D01*
X140803333Y-96508095D01*
X141041428Y-96508095D01*
X141231904Y-96555714D01*
X141327142Y-96603333D01*
X141374761Y-96650952D01*
X141422380Y-96746190D01*
X141422380Y-96841428D01*
X141374761Y-96936666D01*
X141327142Y-96984285D01*
X141231904Y-97031904D01*
X141041428Y-97079523D01*
X140803333Y-97079523D01*
X140612857Y-97031904D01*
X140517619Y-96984285D01*
X140470000Y-96936666D01*
X140422380Y-96841428D01*
D12*
X122802666Y-111637666D02*
X122669333Y-111571000D01*
X122536000Y-111437666D01*
X122336000Y-111237666D01*
X122202666Y-111171000D01*
X122069333Y-111171000D01*
X122136000Y-111504333D02*
X122002666Y-111437666D01*
X121869333Y-111304333D01*
X121802666Y-111037666D01*
X121802666Y-110571000D01*
X121869333Y-110304333D01*
X122002666Y-110171000D01*
X122136000Y-110104333D01*
X122402666Y-110104333D01*
X122536000Y-110171000D01*
X122669333Y-110304333D01*
X122736000Y-110571000D01*
X122736000Y-111037666D01*
X122669333Y-111304333D01*
X122536000Y-111437666D01*
X122402666Y-111504333D01*
X122136000Y-111504333D01*
X123269333Y-110237666D02*
X123336000Y-110171000D01*
X123469333Y-110104333D01*
X123802666Y-110104333D01*
X123936000Y-110171000D01*
X124002666Y-110237666D01*
X124069333Y-110371000D01*
X124069333Y-110504333D01*
X124002666Y-110704333D01*
X123202666Y-111504333D01*
X124069333Y-111504333D01*
D11*
X96972380Y-133357857D02*
X96496190Y-133691190D01*
X96972380Y-133929285D02*
X95972380Y-133929285D01*
X95972380Y-133548333D01*
X96020000Y-133453095D01*
X96067619Y-133405476D01*
X96162857Y-133357857D01*
X96305714Y-133357857D01*
X96400952Y-133405476D01*
X96448571Y-133453095D01*
X96496190Y-133548333D01*
X96496190Y-133929285D01*
X96972380Y-132405476D02*
X96972380Y-132976904D01*
X96972380Y-132691190D02*
X95972380Y-132691190D01*
X96115238Y-132786428D01*
X96210476Y-132881666D01*
X96258095Y-132976904D01*
X95972380Y-132072142D02*
X95972380Y-131453095D01*
X96353333Y-131786428D01*
X96353333Y-131643571D01*
X96400952Y-131548333D01*
X96448571Y-131500714D01*
X96543809Y-131453095D01*
X96781904Y-131453095D01*
X96877142Y-131500714D01*
X96924761Y-131548333D01*
X96972380Y-131643571D01*
X96972380Y-131929285D01*
X96924761Y-132024523D01*
X96877142Y-132072142D01*
X102222380Y-115577857D02*
X101746190Y-115911190D01*
X102222380Y-116149285D02*
X101222380Y-116149285D01*
X101222380Y-115768333D01*
X101270000Y-115673095D01*
X101317619Y-115625476D01*
X101412857Y-115577857D01*
X101555714Y-115577857D01*
X101650952Y-115625476D01*
X101698571Y-115673095D01*
X101746190Y-115768333D01*
X101746190Y-116149285D01*
X102222380Y-114625476D02*
X102222380Y-115196904D01*
X102222380Y-114911190D02*
X101222380Y-114911190D01*
X101365238Y-115006428D01*
X101460476Y-115101666D01*
X101508095Y-115196904D01*
X101222380Y-113720714D02*
X101222380Y-114196904D01*
X101698571Y-114244523D01*
X101650952Y-114196904D01*
X101603333Y-114101666D01*
X101603333Y-113863571D01*
X101650952Y-113768333D01*
X101698571Y-113720714D01*
X101793809Y-113673095D01*
X102031904Y-113673095D01*
X102127142Y-113720714D01*
X102174761Y-113768333D01*
X102222380Y-113863571D01*
X102222380Y-114101666D01*
X102174761Y-114196904D01*
X102127142Y-114244523D01*
X142041380Y-90373095D02*
X141041380Y-90373095D01*
X141041380Y-90135000D01*
X141089000Y-89992142D01*
X141184238Y-89896904D01*
X141279476Y-89849285D01*
X141469952Y-89801666D01*
X141612809Y-89801666D01*
X141803285Y-89849285D01*
X141898523Y-89896904D01*
X141993761Y-89992142D01*
X142041380Y-90135000D01*
X142041380Y-90373095D01*
X142041380Y-89325476D02*
X142041380Y-89135000D01*
X141993761Y-89039761D01*
X141946142Y-88992142D01*
X141803285Y-88896904D01*
X141612809Y-88849285D01*
X141231857Y-88849285D01*
X141136619Y-88896904D01*
X141089000Y-88944523D01*
X141041380Y-89039761D01*
X141041380Y-89230238D01*
X141089000Y-89325476D01*
X141136619Y-89373095D01*
X141231857Y-89420714D01*
X141469952Y-89420714D01*
X141565190Y-89373095D01*
X141612809Y-89325476D01*
X141660428Y-89230238D01*
X141660428Y-89039761D01*
X141612809Y-88944523D01*
X141565190Y-88896904D01*
X141469952Y-88849285D01*
X131976904Y-176347380D02*
X131976904Y-175347380D01*
X132215000Y-175347380D01*
X132357857Y-175395000D01*
X132453095Y-175490238D01*
X132500714Y-175585476D01*
X132548333Y-175775952D01*
X132548333Y-175918809D01*
X132500714Y-176109285D01*
X132453095Y-176204523D01*
X132357857Y-176299761D01*
X132215000Y-176347380D01*
X131976904Y-176347380D01*
X133500714Y-176347380D02*
X132929285Y-176347380D01*
X133215000Y-176347380D02*
X133215000Y-175347380D01*
X133119761Y-175490238D01*
X133024523Y-175585476D01*
X132929285Y-175633095D01*
X134358095Y-176352380D02*
X134358095Y-175352380D01*
X134929523Y-176352380D02*
X134500952Y-175780952D01*
X134929523Y-175352380D02*
X134358095Y-175923809D01*
X123063095Y-85177380D02*
X123063095Y-85986904D01*
X123110714Y-86082142D01*
X123158333Y-86129761D01*
X123253571Y-86177380D01*
X123444047Y-86177380D01*
X123539285Y-86129761D01*
X123586904Y-86082142D01*
X123634523Y-85986904D01*
X123634523Y-85177380D01*
X124063095Y-85272619D02*
X124110714Y-85225000D01*
X124205952Y-85177380D01*
X124444047Y-85177380D01*
X124539285Y-85225000D01*
X124586904Y-85272619D01*
X124634523Y-85367857D01*
X124634523Y-85463095D01*
X124586904Y-85605952D01*
X124015476Y-86177380D01*
X124634523Y-86177380D01*
X107132380Y-166473095D02*
X106132380Y-166473095D01*
X106132380Y-166235000D01*
X106180000Y-166092142D01*
X106275238Y-165996904D01*
X106370476Y-165949285D01*
X106560952Y-165901666D01*
X106703809Y-165901666D01*
X106894285Y-165949285D01*
X106989523Y-165996904D01*
X107084761Y-166092142D01*
X107132380Y-166235000D01*
X107132380Y-166473095D01*
X106132380Y-165568333D02*
X106132380Y-164949285D01*
X106513333Y-165282619D01*
X106513333Y-165139761D01*
X106560952Y-165044523D01*
X106608571Y-164996904D01*
X106703809Y-164949285D01*
X106941904Y-164949285D01*
X107037142Y-164996904D01*
X107084761Y-165044523D01*
X107132380Y-165139761D01*
X107132380Y-165425476D01*
X107084761Y-165520714D01*
X107037142Y-165568333D01*
X108397380Y-168536904D02*
X107397380Y-168536904D01*
X108397380Y-167965476D02*
X107825952Y-168394047D01*
X107397380Y-167965476D02*
X107968809Y-168536904D01*
X148386904Y-180141380D02*
X148386904Y-179141380D01*
X148625000Y-179141380D01*
X148767857Y-179189000D01*
X148863095Y-179284238D01*
X148910714Y-179379476D01*
X148958333Y-179569952D01*
X148958333Y-179712809D01*
X148910714Y-179903285D01*
X148863095Y-179998523D01*
X148767857Y-180093761D01*
X148625000Y-180141380D01*
X148386904Y-180141380D01*
X149291666Y-179141380D02*
X149958333Y-179141380D01*
X149529761Y-180141380D01*
X128892380Y-141136666D02*
X128416190Y-141470000D01*
X128892380Y-141708095D02*
X127892380Y-141708095D01*
X127892380Y-141327142D01*
X127940000Y-141231904D01*
X127987619Y-141184285D01*
X128082857Y-141136666D01*
X128225714Y-141136666D01*
X128320952Y-141184285D01*
X128368571Y-141231904D01*
X128416190Y-141327142D01*
X128416190Y-141708095D01*
X127892380Y-140803333D02*
X127892380Y-140136666D01*
X128892380Y-140565238D01*
X127627142Y-100782380D02*
X127293809Y-100306190D01*
X127055714Y-100782380D02*
X127055714Y-99782380D01*
X127436666Y-99782380D01*
X127531904Y-99830000D01*
X127579523Y-99877619D01*
X127627142Y-99972857D01*
X127627142Y-100115714D01*
X127579523Y-100210952D01*
X127531904Y-100258571D01*
X127436666Y-100306190D01*
X127055714Y-100306190D01*
X128008095Y-99877619D02*
X128055714Y-99830000D01*
X128150952Y-99782380D01*
X128389047Y-99782380D01*
X128484285Y-99830000D01*
X128531904Y-99877619D01*
X128579523Y-99972857D01*
X128579523Y-100068095D01*
X128531904Y-100210952D01*
X127960476Y-100782380D01*
X128579523Y-100782380D01*
X129531904Y-100782380D02*
X128960476Y-100782380D01*
X129246190Y-100782380D02*
X129246190Y-99782380D01*
X129150952Y-99925238D01*
X129055714Y-100020476D01*
X128960476Y-100068095D01*
X140152380Y-139707857D02*
X139676190Y-140041190D01*
X140152380Y-140279285D02*
X139152380Y-140279285D01*
X139152380Y-139898333D01*
X139200000Y-139803095D01*
X139247619Y-139755476D01*
X139342857Y-139707857D01*
X139485714Y-139707857D01*
X139580952Y-139755476D01*
X139628571Y-139803095D01*
X139676190Y-139898333D01*
X139676190Y-140279285D01*
X140152380Y-138755476D02*
X140152380Y-139326904D01*
X140152380Y-139041190D02*
X139152380Y-139041190D01*
X139295238Y-139136428D01*
X139390476Y-139231666D01*
X139438095Y-139326904D01*
X140152380Y-137803095D02*
X140152380Y-138374523D01*
X140152380Y-138088809D02*
X139152380Y-138088809D01*
X139295238Y-138184047D01*
X139390476Y-138279285D01*
X139438095Y-138374523D01*
X131976904Y-161107380D02*
X131976904Y-160107380D01*
X132215000Y-160107380D01*
X132357857Y-160155000D01*
X132453095Y-160250238D01*
X132500714Y-160345476D01*
X132548333Y-160535952D01*
X132548333Y-160678809D01*
X132500714Y-160869285D01*
X132453095Y-160964523D01*
X132357857Y-161059761D01*
X132215000Y-161107380D01*
X131976904Y-161107380D01*
X133453095Y-160107380D02*
X132976904Y-160107380D01*
X132929285Y-160583571D01*
X132976904Y-160535952D01*
X133072142Y-160488333D01*
X133310238Y-160488333D01*
X133405476Y-160535952D01*
X133453095Y-160583571D01*
X133500714Y-160678809D01*
X133500714Y-160916904D01*
X133453095Y-161012142D01*
X133405476Y-161059761D01*
X133310238Y-161107380D01*
X133072142Y-161107380D01*
X132976904Y-161059761D01*
X132929285Y-161012142D01*
X134358095Y-161112380D02*
X134358095Y-160112380D01*
X134929523Y-161112380D02*
X134500952Y-160540952D01*
X134929523Y-160112380D02*
X134358095Y-160683809D01*
X113022142Y-100952380D02*
X112688809Y-100476190D01*
X112450714Y-100952380D02*
X112450714Y-99952380D01*
X112831666Y-99952380D01*
X112926904Y-100000000D01*
X112974523Y-100047619D01*
X113022142Y-100142857D01*
X113022142Y-100285714D01*
X112974523Y-100380952D01*
X112926904Y-100428571D01*
X112831666Y-100476190D01*
X112450714Y-100476190D01*
X113974523Y-100952380D02*
X113403095Y-100952380D01*
X113688809Y-100952380D02*
X113688809Y-99952380D01*
X113593571Y-100095238D01*
X113498333Y-100190476D01*
X113403095Y-100238095D01*
X114831666Y-99952380D02*
X114641190Y-99952380D01*
X114545952Y-100000000D01*
X114498333Y-100047619D01*
X114403095Y-100190476D01*
X114355476Y-100380952D01*
X114355476Y-100761904D01*
X114403095Y-100857142D01*
X114450714Y-100904761D01*
X114545952Y-100952380D01*
X114736428Y-100952380D01*
X114831666Y-100904761D01*
X114879285Y-100857142D01*
X114926904Y-100761904D01*
X114926904Y-100523809D01*
X114879285Y-100428571D01*
X114831666Y-100380952D01*
X114736428Y-100333333D01*
X114545952Y-100333333D01*
X114450714Y-100380952D01*
X114403095Y-100428571D01*
X114355476Y-100523809D01*
X109053333Y-93702142D02*
X109005714Y-93749761D01*
X108862857Y-93797380D01*
X108767619Y-93797380D01*
X108624761Y-93749761D01*
X108529523Y-93654523D01*
X108481904Y-93559285D01*
X108434285Y-93368809D01*
X108434285Y-93225952D01*
X108481904Y-93035476D01*
X108529523Y-92940238D01*
X108624761Y-92845000D01*
X108767619Y-92797380D01*
X108862857Y-92797380D01*
X109005714Y-92845000D01*
X109053333Y-92892619D01*
X109386666Y-92797380D02*
X110053333Y-92797380D01*
X109624761Y-93797380D01*
X97456666Y-89622380D02*
X97456666Y-90336666D01*
X97409047Y-90479523D01*
X97313809Y-90574761D01*
X97170952Y-90622380D01*
X97075714Y-90622380D01*
X98361428Y-89622380D02*
X98170952Y-89622380D01*
X98075714Y-89670000D01*
X98028095Y-89717619D01*
X97932857Y-89860476D01*
X97885238Y-90050952D01*
X97885238Y-90431904D01*
X97932857Y-90527142D01*
X97980476Y-90574761D01*
X98075714Y-90622380D01*
X98266190Y-90622380D01*
X98361428Y-90574761D01*
X98409047Y-90527142D01*
X98456666Y-90431904D01*
X98456666Y-90193809D01*
X98409047Y-90098571D01*
X98361428Y-90050952D01*
X98266190Y-90003333D01*
X98075714Y-90003333D01*
X97980476Y-90050952D01*
X97932857Y-90098571D01*
X97885238Y-90193809D01*
X111117142Y-149042380D02*
X110783809Y-148566190D01*
X110545714Y-149042380D02*
X110545714Y-148042380D01*
X110926666Y-148042380D01*
X111021904Y-148090000D01*
X111069523Y-148137619D01*
X111117142Y-148232857D01*
X111117142Y-148375714D01*
X111069523Y-148470952D01*
X111021904Y-148518571D01*
X110926666Y-148566190D01*
X110545714Y-148566190D01*
X112069523Y-149042380D02*
X111498095Y-149042380D01*
X111783809Y-149042380D02*
X111783809Y-148042380D01*
X111688571Y-148185238D01*
X111593333Y-148280476D01*
X111498095Y-148328095D01*
X112450476Y-148137619D02*
X112498095Y-148090000D01*
X112593333Y-148042380D01*
X112831428Y-148042380D01*
X112926666Y-148090000D01*
X112974285Y-148137619D01*
X113021904Y-148232857D01*
X113021904Y-148328095D01*
X112974285Y-148470952D01*
X112402857Y-149042380D01*
X113021904Y-149042380D01*
X122542380Y-152566666D02*
X122066190Y-152900000D01*
X122542380Y-153138095D02*
X121542380Y-153138095D01*
X121542380Y-152757142D01*
X121590000Y-152661904D01*
X121637619Y-152614285D01*
X121732857Y-152566666D01*
X121875714Y-152566666D01*
X121970952Y-152614285D01*
X122018571Y-152661904D01*
X122066190Y-152757142D01*
X122066190Y-153138095D01*
X121875714Y-151709523D02*
X122542380Y-151709523D01*
X121494761Y-151947619D02*
X122209047Y-152185714D01*
X122209047Y-151566666D01*
X144446666Y-106347380D02*
X144446666Y-107061666D01*
X144399047Y-107204523D01*
X144303809Y-107299761D01*
X144160952Y-107347380D01*
X144065714Y-107347380D01*
X145351428Y-106680714D02*
X145351428Y-107347380D01*
X145113333Y-106299761D02*
X144875238Y-107014047D01*
X145494285Y-107014047D01*
X128262142Y-83637380D02*
X127928809Y-83161190D01*
X127690714Y-83637380D02*
X127690714Y-82637380D01*
X128071666Y-82637380D01*
X128166904Y-82685000D01*
X128214523Y-82732619D01*
X128262142Y-82827857D01*
X128262142Y-82970714D01*
X128214523Y-83065952D01*
X128166904Y-83113571D01*
X128071666Y-83161190D01*
X127690714Y-83161190D01*
X128643095Y-82732619D02*
X128690714Y-82685000D01*
X128785952Y-82637380D01*
X129024047Y-82637380D01*
X129119285Y-82685000D01*
X129166904Y-82732619D01*
X129214523Y-82827857D01*
X129214523Y-82923095D01*
X129166904Y-83065952D01*
X128595476Y-83637380D01*
X129214523Y-83637380D01*
X129595476Y-82732619D02*
X129643095Y-82685000D01*
X129738333Y-82637380D01*
X129976428Y-82637380D01*
X130071666Y-82685000D01*
X130119285Y-82732619D01*
X130166904Y-82827857D01*
X130166904Y-82923095D01*
X130119285Y-83065952D01*
X129547857Y-83637380D01*
X130166904Y-83637380D01*
X128892380Y-152566666D02*
X128416190Y-152900000D01*
X128892380Y-153138095D02*
X127892380Y-153138095D01*
X127892380Y-152757142D01*
X127940000Y-152661904D01*
X127987619Y-152614285D01*
X128082857Y-152566666D01*
X128225714Y-152566666D01*
X128320952Y-152614285D01*
X128368571Y-152661904D01*
X128416190Y-152757142D01*
X128416190Y-153138095D01*
X127892380Y-151661904D02*
X127892380Y-152138095D01*
X128368571Y-152185714D01*
X128320952Y-152138095D01*
X128273333Y-152042857D01*
X128273333Y-151804761D01*
X128320952Y-151709523D01*
X128368571Y-151661904D01*
X128463809Y-151614285D01*
X128701904Y-151614285D01*
X128797142Y-151661904D01*
X128844761Y-151709523D01*
X128892380Y-151804761D01*
X128892380Y-152042857D01*
X128844761Y-152138095D01*
X128797142Y-152185714D01*
X135072380Y-143041666D02*
X134596190Y-143375000D01*
X135072380Y-143613095D02*
X134072380Y-143613095D01*
X134072380Y-143232142D01*
X134120000Y-143136904D01*
X134167619Y-143089285D01*
X134262857Y-143041666D01*
X134405714Y-143041666D01*
X134500952Y-143089285D01*
X134548571Y-143136904D01*
X134596190Y-143232142D01*
X134596190Y-143613095D01*
X134072380Y-142184523D02*
X134072380Y-142375000D01*
X134120000Y-142470238D01*
X134167619Y-142517857D01*
X134310476Y-142613095D01*
X134500952Y-142660714D01*
X134881904Y-142660714D01*
X134977142Y-142613095D01*
X135024761Y-142565476D01*
X135072380Y-142470238D01*
X135072380Y-142279761D01*
X135024761Y-142184523D01*
X134977142Y-142136904D01*
X134881904Y-142089285D01*
X134643809Y-142089285D01*
X134548571Y-142136904D01*
X134500952Y-142184523D01*
X134453333Y-142279761D01*
X134453333Y-142470238D01*
X134500952Y-142565476D01*
X134548571Y-142613095D01*
X134643809Y-142660714D01*
X103322380Y-140342857D02*
X102846190Y-140676190D01*
X103322380Y-140914285D02*
X102322380Y-140914285D01*
X102322380Y-140533333D01*
X102370000Y-140438095D01*
X102417619Y-140390476D01*
X102512857Y-140342857D01*
X102655714Y-140342857D01*
X102750952Y-140390476D01*
X102798571Y-140438095D01*
X102846190Y-140533333D01*
X102846190Y-140914285D01*
X103322380Y-139390476D02*
X103322380Y-139961904D01*
X103322380Y-139676190D02*
X102322380Y-139676190D01*
X102465238Y-139771428D01*
X102560476Y-139866666D01*
X102608095Y-139961904D01*
X102655714Y-138533333D02*
X103322380Y-138533333D01*
X102274761Y-138771428D02*
X102989047Y-139009523D01*
X102989047Y-138390476D01*
X97142380Y-151296666D02*
X96666190Y-151630000D01*
X97142380Y-151868095D02*
X96142380Y-151868095D01*
X96142380Y-151487142D01*
X96190000Y-151391904D01*
X96237619Y-151344285D01*
X96332857Y-151296666D01*
X96475714Y-151296666D01*
X96570952Y-151344285D01*
X96618571Y-151391904D01*
X96666190Y-151487142D01*
X96666190Y-151868095D01*
X96142380Y-150963333D02*
X96142380Y-150344285D01*
X96523333Y-150677619D01*
X96523333Y-150534761D01*
X96570952Y-150439523D01*
X96618571Y-150391904D01*
X96713809Y-150344285D01*
X96951904Y-150344285D01*
X97047142Y-150391904D01*
X97094761Y-150439523D01*
X97142380Y-150534761D01*
X97142380Y-150820476D01*
X97094761Y-150915714D01*
X97047142Y-150963333D01*
X171997619Y-92805238D02*
X171950000Y-92900476D01*
X171854761Y-92995714D01*
X171711904Y-93138571D01*
X171664285Y-93233809D01*
X171664285Y-93329047D01*
X171902380Y-93281428D02*
X171854761Y-93376666D01*
X171759523Y-93471904D01*
X171569047Y-93519523D01*
X171235714Y-93519523D01*
X171045238Y-93471904D01*
X170950000Y-93376666D01*
X170902380Y-93281428D01*
X170902380Y-93090952D01*
X170950000Y-92995714D01*
X171045238Y-92900476D01*
X171235714Y-92852857D01*
X171569047Y-92852857D01*
X171759523Y-92900476D01*
X171854761Y-92995714D01*
X171902380Y-93090952D01*
X171902380Y-93281428D01*
X170902380Y-92519523D02*
X170902380Y-91900476D01*
X171283333Y-92233809D01*
X171283333Y-92090952D01*
X171330952Y-91995714D01*
X171378571Y-91948095D01*
X171473809Y-91900476D01*
X171711904Y-91900476D01*
X171807142Y-91948095D01*
X171854761Y-91995714D01*
X171902380Y-92090952D01*
X171902380Y-92376666D01*
X171854761Y-92471904D01*
X171807142Y-92519523D01*
X104441666Y-99147380D02*
X104441666Y-99861666D01*
X104394047Y-100004523D01*
X104298809Y-100099761D01*
X104155952Y-100147380D01*
X104060714Y-100147380D01*
X105060714Y-99575952D02*
X104965476Y-99528333D01*
X104917857Y-99480714D01*
X104870238Y-99385476D01*
X104870238Y-99337857D01*
X104917857Y-99242619D01*
X104965476Y-99195000D01*
X105060714Y-99147380D01*
X105251190Y-99147380D01*
X105346428Y-99195000D01*
X105394047Y-99242619D01*
X105441666Y-99337857D01*
X105441666Y-99385476D01*
X105394047Y-99480714D01*
X105346428Y-99528333D01*
X105251190Y-99575952D01*
X105060714Y-99575952D01*
X104965476Y-99623571D01*
X104917857Y-99671190D01*
X104870238Y-99766428D01*
X104870238Y-99956904D01*
X104917857Y-100052142D01*
X104965476Y-100099761D01*
X105060714Y-100147380D01*
X105251190Y-100147380D01*
X105346428Y-100099761D01*
X105394047Y-100052142D01*
X105441666Y-99956904D01*
X105441666Y-99766428D01*
X105394047Y-99671190D01*
X105346428Y-99623571D01*
X105251190Y-99575952D01*
X137691904Y-165622380D02*
X137691904Y-164622380D01*
X137930000Y-164622380D01*
X138072857Y-164670000D01*
X138168095Y-164765238D01*
X138215714Y-164860476D01*
X138263333Y-165050952D01*
X138263333Y-165193809D01*
X138215714Y-165384285D01*
X138168095Y-165479523D01*
X138072857Y-165574761D01*
X137930000Y-165622380D01*
X137691904Y-165622380D01*
X138644285Y-164717619D02*
X138691904Y-164670000D01*
X138787142Y-164622380D01*
X139025238Y-164622380D01*
X139120476Y-164670000D01*
X139168095Y-164717619D01*
X139215714Y-164812857D01*
X139215714Y-164908095D01*
X139168095Y-165050952D01*
X138596666Y-165622380D01*
X139215714Y-165622380D01*
X134358095Y-166192380D02*
X134358095Y-165192380D01*
X134929523Y-166192380D02*
X134500952Y-165620952D01*
X134929523Y-165192380D02*
X134358095Y-165763809D01*
X147153333Y-86962380D02*
X146677142Y-86962380D01*
X146677142Y-85962380D01*
X148010476Y-86962380D02*
X147439047Y-86962380D01*
X147724761Y-86962380D02*
X147724761Y-85962380D01*
X147629523Y-86105238D01*
X147534285Y-86200476D01*
X147439047Y-86248095D01*
X109053333Y-123547142D02*
X109005714Y-123594761D01*
X108862857Y-123642380D01*
X108767619Y-123642380D01*
X108624761Y-123594761D01*
X108529523Y-123499523D01*
X108481904Y-123404285D01*
X108434285Y-123213809D01*
X108434285Y-123070952D01*
X108481904Y-122880476D01*
X108529523Y-122785238D01*
X108624761Y-122690000D01*
X108767619Y-122642380D01*
X108862857Y-122642380D01*
X109005714Y-122690000D01*
X109053333Y-122737619D01*
X109958095Y-122642380D02*
X109481904Y-122642380D01*
X109434285Y-123118571D01*
X109481904Y-123070952D01*
X109577142Y-123023333D01*
X109815238Y-123023333D01*
X109910476Y-123070952D01*
X109958095Y-123118571D01*
X110005714Y-123213809D01*
X110005714Y-123451904D01*
X109958095Y-123547142D01*
X109910476Y-123594761D01*
X109815238Y-123642380D01*
X109577142Y-123642380D01*
X109481904Y-123594761D01*
X109434285Y-123547142D01*
X157313333Y-108307142D02*
X157265714Y-108354761D01*
X157122857Y-108402380D01*
X157027619Y-108402380D01*
X156884761Y-108354761D01*
X156789523Y-108259523D01*
X156741904Y-108164285D01*
X156694285Y-107973809D01*
X156694285Y-107830952D01*
X156741904Y-107640476D01*
X156789523Y-107545238D01*
X156884761Y-107450000D01*
X157027619Y-107402380D01*
X157122857Y-107402380D01*
X157265714Y-107450000D01*
X157313333Y-107497619D01*
X158170476Y-107735714D02*
X158170476Y-108402380D01*
X157932380Y-107354761D02*
X157694285Y-108069047D01*
X158313333Y-108069047D01*
X159130952Y-114228571D02*
X158369047Y-114228571D01*
X159130952Y-170108571D02*
X158369047Y-170108571D01*
X158750000Y-169727619D02*
X158750000Y-170489523D01*
X114818095Y-134292380D02*
X114818095Y-135101904D01*
X114865714Y-135197142D01*
X114913333Y-135244761D01*
X115008571Y-135292380D01*
X115199047Y-135292380D01*
X115294285Y-135244761D01*
X115341904Y-135197142D01*
X115389523Y-135101904D01*
X115389523Y-134292380D01*
X116389523Y-135292380D02*
X115818095Y-135292380D01*
X116103809Y-135292380D02*
X116103809Y-134292380D01*
X116008571Y-134435238D01*
X115913333Y-134530476D01*
X115818095Y-134578095D01*
X137782380Y-108592857D02*
X137306190Y-108926190D01*
X137782380Y-109164285D02*
X136782380Y-109164285D01*
X136782380Y-108783333D01*
X136830000Y-108688095D01*
X136877619Y-108640476D01*
X136972857Y-108592857D01*
X137115714Y-108592857D01*
X137210952Y-108640476D01*
X137258571Y-108688095D01*
X137306190Y-108783333D01*
X137306190Y-109164285D01*
X136877619Y-108211904D02*
X136830000Y-108164285D01*
X136782380Y-108069047D01*
X136782380Y-107830952D01*
X136830000Y-107735714D01*
X136877619Y-107688095D01*
X136972857Y-107640476D01*
X137068095Y-107640476D01*
X137210952Y-107688095D01*
X137782380Y-108259523D01*
X137782380Y-107640476D01*
X136782380Y-107021428D02*
X136782380Y-106926190D01*
X136830000Y-106830952D01*
X136877619Y-106783333D01*
X136972857Y-106735714D01*
X137163333Y-106688095D01*
X137401428Y-106688095D01*
X137591904Y-106735714D01*
X137687142Y-106783333D01*
X137734761Y-106830952D01*
X137782380Y-106926190D01*
X137782380Y-107021428D01*
X137734761Y-107116666D01*
X137687142Y-107164285D01*
X137591904Y-107211904D01*
X137401428Y-107259523D01*
X137163333Y-107259523D01*
X136972857Y-107211904D01*
X136877619Y-107164285D01*
X136830000Y-107116666D01*
X136782380Y-107021428D01*
X124356904Y-106497380D02*
X124356904Y-105497380D01*
X124595000Y-105497380D01*
X124737857Y-105545000D01*
X124833095Y-105640238D01*
X124880714Y-105735476D01*
X124928333Y-105925952D01*
X124928333Y-106068809D01*
X124880714Y-106259285D01*
X124833095Y-106354523D01*
X124737857Y-106449761D01*
X124595000Y-106497380D01*
X124356904Y-106497380D01*
X125499761Y-105925952D02*
X125404523Y-105878333D01*
X125356904Y-105830714D01*
X125309285Y-105735476D01*
X125309285Y-105687857D01*
X125356904Y-105592619D01*
X125404523Y-105545000D01*
X125499761Y-105497380D01*
X125690238Y-105497380D01*
X125785476Y-105545000D01*
X125833095Y-105592619D01*
X125880714Y-105687857D01*
X125880714Y-105735476D01*
X125833095Y-105830714D01*
X125785476Y-105878333D01*
X125690238Y-105925952D01*
X125499761Y-105925952D01*
X125404523Y-105973571D01*
X125356904Y-106021190D01*
X125309285Y-106116428D01*
X125309285Y-106306904D01*
X125356904Y-106402142D01*
X125404523Y-106449761D01*
X125499761Y-106497380D01*
X125690238Y-106497380D01*
X125785476Y-106449761D01*
X125833095Y-106402142D01*
X125880714Y-106306904D01*
X125880714Y-106116428D01*
X125833095Y-106021190D01*
X125785476Y-105973571D01*
X125690238Y-105925952D01*
X126738095Y-106502380D02*
X126738095Y-105502380D01*
X127309523Y-106502380D02*
X126880952Y-105930952D01*
X127309523Y-105502380D02*
X126738095Y-106073809D01*
X98091666Y-99147380D02*
X98091666Y-99861666D01*
X98044047Y-100004523D01*
X97948809Y-100099761D01*
X97805952Y-100147380D01*
X97710714Y-100147380D01*
X99044047Y-99147380D02*
X98567857Y-99147380D01*
X98520238Y-99623571D01*
X98567857Y-99575952D01*
X98663095Y-99528333D01*
X98901190Y-99528333D01*
X98996428Y-99575952D01*
X99044047Y-99623571D01*
X99091666Y-99718809D01*
X99091666Y-99956904D01*
X99044047Y-100052142D01*
X98996428Y-100099761D01*
X98901190Y-100147380D01*
X98663095Y-100147380D01*
X98567857Y-100099761D01*
X98520238Y-100052142D01*
D13*
X115587500Y-181240000D02*
X115587500Y-179300000D01*
X113117500Y-176600000D02*
X112217500Y-175700000D01*
X118957500Y-175700000D02*
X118957500Y-161060000D01*
X112217500Y-177500000D02*
X113117500Y-176600000D01*
X112987500Y-181400000D02*
X112987500Y-179600000D01*
X112217500Y-179300000D02*
X118957500Y-179300000D01*
X112217500Y-161060000D02*
X118957500Y-161060000D01*
X115587500Y-159120000D02*
X115587500Y-161060000D01*
X118057500Y-176600000D02*
X118957500Y-175700000D01*
X112217500Y-175700000D02*
X112217500Y-161060000D01*
X118957500Y-179300000D02*
X118957500Y-177500000D01*
X118957500Y-177500000D02*
X118057500Y-176600000D01*
X112087500Y-180500000D02*
X113887500Y-180500000D01*
X112217500Y-179300000D02*
X112217500Y-177500000D01*
X136610000Y-171250000D02*
X136610000Y-174190000D01*
X141150000Y-171250000D02*
X141150000Y-171580000D01*
X141150000Y-174190000D02*
X141150000Y-173860000D01*
X135710000Y-173860000D02*
X135710000Y-174190000D01*
X135710000Y-171580000D02*
X135710000Y-171250000D01*
X135710000Y-171250000D02*
X141150000Y-171250000D01*
X136730000Y-171250000D02*
X136730000Y-174190000D01*
X136490000Y-171250000D02*
X136490000Y-174190000D01*
X135710000Y-174190000D02*
X141150000Y-174190000D01*
X164060000Y-91236000D02*
X161396000Y-91236000D01*
X168569000Y-91676000D02*
X166140000Y-91676000D01*
X167554000Y-92796000D02*
X162646000Y-92796000D01*
X167967000Y-92436000D02*
X162233000Y-92436000D01*
X164060000Y-89955000D02*
X161043000Y-89955000D01*
X164060000Y-91436000D02*
X161494000Y-91436000D01*
X167202000Y-93036000D02*
X162998000Y-93036000D01*
X164060000Y-90596000D02*
X161164000Y-90596000D01*
X164060000Y-89835000D02*
X161032000Y-89835000D01*
X164060000Y-91676000D02*
X161631000Y-91676000D01*
X164060000Y-91476000D02*
X161516000Y-91476000D01*
X169036000Y-90596000D02*
X166140000Y-90596000D01*
X166048000Y-93516000D02*
X164152000Y-93516000D01*
X169085000Y-90396000D02*
X166140000Y-90396000D01*
X164060000Y-91396000D02*
X161473000Y-91396000D01*
X168921000Y-90956000D02*
X166140000Y-90956000D01*
X169057000Y-90516000D02*
X166140000Y-90516000D01*
X164060000Y-90476000D02*
X161133000Y-90476000D01*
X164060000Y-91556000D02*
X161560000Y-91556000D01*
X169179000Y-89635000D02*
X161021000Y-89635000D01*
X164060000Y-91316000D02*
X161434000Y-91316000D01*
X164060000Y-90876000D02*
X161250000Y-90876000D01*
X164060000Y-91796000D02*
X161708000Y-91796000D01*
X167387000Y-92916000D02*
X162813000Y-92916000D01*
X168857000Y-91116000D02*
X166140000Y-91116000D01*
X168350000Y-91996000D02*
X161850000Y-91996000D01*
X168977000Y-90796000D02*
X166140000Y-90796000D01*
X169117000Y-90236000D02*
X166140000Y-90236000D01*
X164060000Y-90756000D02*
X161211000Y-90756000D01*
X168804000Y-91236000D02*
X166140000Y-91236000D01*
X164060000Y-89875000D02*
X161035000Y-89875000D01*
X164060000Y-89755000D02*
X161026000Y-89755000D01*
X167751000Y-92636000D02*
X162449000Y-92636000D01*
X169002000Y-90716000D02*
X166140000Y-90716000D01*
X166198000Y-93476000D02*
X164002000Y-93476000D01*
X169148000Y-90035000D02*
X166140000Y-90035000D01*
X168438000Y-91876000D02*
X161762000Y-91876000D01*
X169180000Y-89515000D02*
X161020000Y-89515000D01*
X168007000Y-92396000D02*
X162193000Y-92396000D01*
X168224000Y-92156000D02*
X161976000Y-92156000D01*
X167884000Y-92516000D02*
X162316000Y-92516000D01*
X164060000Y-91596000D02*
X161583000Y-91596000D01*
X164060000Y-90676000D02*
X161186000Y-90676000D01*
X164060000Y-90556000D02*
X161153000Y-90556000D01*
X167605000Y-92756000D02*
X162595000Y-92756000D01*
X164060000Y-91756000D02*
X161682000Y-91756000D01*
X168786000Y-91276000D02*
X166140000Y-91276000D01*
X169152000Y-89995000D02*
X166140000Y-89995000D01*
X169168000Y-89835000D02*
X166140000Y-89835000D01*
X168935000Y-90916000D02*
X166140000Y-90916000D01*
X164060000Y-90716000D02*
X161198000Y-90716000D01*
X168593000Y-91636000D02*
X166140000Y-91636000D01*
X164060000Y-91636000D02*
X161607000Y-91636000D01*
X168822000Y-91196000D02*
X166140000Y-91196000D01*
X168190000Y-92196000D02*
X162010000Y-92196000D01*
X167704000Y-92676000D02*
X162496000Y-92676000D01*
X164060000Y-91036000D02*
X161310000Y-91036000D01*
X168905000Y-90996000D02*
X166140000Y-90996000D01*
X166831000Y-93236000D02*
X163369000Y-93236000D01*
X168289000Y-92076000D02*
X161911000Y-92076000D01*
X168963000Y-90836000D02*
X166140000Y-90836000D01*
X164060000Y-91516000D02*
X161538000Y-91516000D01*
X164060000Y-90916000D02*
X161265000Y-90916000D01*
X169076000Y-90436000D02*
X166140000Y-90436000D01*
X168684000Y-91476000D02*
X166140000Y-91476000D01*
X167656000Y-92716000D02*
X162544000Y-92716000D01*
X166652000Y-93316000D02*
X163548000Y-93316000D01*
X167064000Y-93116000D02*
X163136000Y-93116000D01*
X164060000Y-91196000D02*
X161378000Y-91196000D01*
X169025000Y-90636000D02*
X166140000Y-90636000D01*
X169161000Y-89915000D02*
X166140000Y-89915000D01*
X168380000Y-91956000D02*
X161820000Y-91956000D01*
X169110000Y-90276000D02*
X166140000Y-90276000D01*
X164060000Y-91276000D02*
X161414000Y-91276000D01*
X168256000Y-92116000D02*
X161944000Y-92116000D01*
X168766000Y-91316000D02*
X166140000Y-91316000D01*
X168640000Y-91556000D02*
X166140000Y-91556000D01*
X167500000Y-92836000D02*
X162700000Y-92836000D01*
X167797000Y-92596000D02*
X162403000Y-92596000D01*
X168083000Y-92316000D02*
X162117000Y-92316000D01*
X167815000Y-85505302D02*
X167015000Y-85505302D01*
X168950000Y-90876000D02*
X166140000Y-90876000D01*
X167328000Y-92956000D02*
X162872000Y-92956000D01*
X168492000Y-91796000D02*
X166140000Y-91796000D01*
X168840000Y-91156000D02*
X166140000Y-91156000D01*
X164060000Y-90155000D02*
X161070000Y-90155000D01*
X169094000Y-90356000D02*
X166140000Y-90356000D01*
X164060000Y-90276000D02*
X161090000Y-90276000D01*
X166990000Y-93156000D02*
X163210000Y-93156000D01*
X167415000Y-85105302D02*
X167415000Y-85905302D01*
X164060000Y-91116000D02*
X161343000Y-91116000D01*
X168890000Y-91036000D02*
X166140000Y-91036000D01*
X167445000Y-92876000D02*
X162755000Y-92876000D01*
X169157000Y-89955000D02*
X166140000Y-89955000D01*
X168119000Y-92276000D02*
X162081000Y-92276000D01*
X168747000Y-91356000D02*
X166140000Y-91356000D01*
X165633000Y-93596000D02*
X164567000Y-93596000D01*
X164060000Y-91076000D02*
X161326000Y-91076000D01*
X164060000Y-90316000D02*
X161098000Y-90316000D01*
X168045000Y-92356000D02*
X162155000Y-92356000D01*
X169142000Y-90075000D02*
X166140000Y-90075000D01*
X164060000Y-90035000D02*
X161052000Y-90035000D01*
X164060000Y-91716000D02*
X161656000Y-91716000D01*
X165868000Y-93556000D02*
X164332000Y-93556000D01*
X164060000Y-90516000D02*
X161143000Y-90516000D01*
X166329000Y-93436000D02*
X163871000Y-93436000D01*
X169171000Y-89795000D02*
X166140000Y-89795000D01*
X169137000Y-90115000D02*
X166140000Y-90115000D01*
X169067000Y-90476000D02*
X166140000Y-90476000D01*
X164060000Y-91156000D02*
X161360000Y-91156000D01*
X168617000Y-91596000D02*
X166140000Y-91596000D01*
X166446000Y-93396000D02*
X163754000Y-93396000D01*
X168544000Y-91716000D02*
X166140000Y-91716000D01*
X169124000Y-90195000D02*
X166140000Y-90195000D01*
X164060000Y-90075000D02*
X161058000Y-90075000D01*
X168662000Y-91516000D02*
X166140000Y-91516000D01*
X164060000Y-90956000D02*
X161279000Y-90956000D01*
X164060000Y-90636000D02*
X161175000Y-90636000D01*
X166745000Y-93276000D02*
X163455000Y-93276000D01*
X164060000Y-91356000D02*
X161453000Y-91356000D01*
X168706000Y-91436000D02*
X166140000Y-91436000D01*
X168518000Y-91756000D02*
X166140000Y-91756000D01*
X166553000Y-93356000D02*
X163647000Y-93356000D01*
X164060000Y-89995000D02*
X161048000Y-89995000D01*
X169180000Y-89555000D02*
X161020000Y-89555000D01*
X169177000Y-89675000D02*
X161023000Y-89675000D01*
X164060000Y-90996000D02*
X161295000Y-90996000D01*
X169180000Y-89595000D02*
X161020000Y-89595000D01*
X164060000Y-90836000D02*
X161237000Y-90836000D01*
X164060000Y-89795000D02*
X161029000Y-89795000D01*
X167841000Y-92556000D02*
X162359000Y-92556000D01*
X169165000Y-89875000D02*
X166140000Y-89875000D01*
X168989000Y-90756000D02*
X166140000Y-90756000D01*
X169102000Y-90316000D02*
X166140000Y-90316000D01*
X168874000Y-91076000D02*
X166140000Y-91076000D01*
X168320000Y-92036000D02*
X161880000Y-92036000D01*
X169014000Y-90676000D02*
X166140000Y-90676000D01*
X164060000Y-90796000D02*
X161223000Y-90796000D01*
X167266000Y-92996000D02*
X162934000Y-92996000D01*
X168727000Y-91396000D02*
X166140000Y-91396000D01*
X168409000Y-91916000D02*
X161791000Y-91916000D01*
X168155000Y-92236000D02*
X162045000Y-92236000D01*
X164060000Y-90195000D02*
X161076000Y-90195000D01*
X167926000Y-92476000D02*
X162274000Y-92476000D01*
X169130000Y-90155000D02*
X166140000Y-90155000D01*
X169174000Y-89755000D02*
X166140000Y-89755000D01*
X166913000Y-93196000D02*
X163287000Y-93196000D01*
X164060000Y-90115000D02*
X161063000Y-90115000D01*
X169047000Y-90556000D02*
X166140000Y-90556000D01*
X164060000Y-90236000D02*
X161083000Y-90236000D01*
X168465000Y-91836000D02*
X161735000Y-91836000D01*
X167134000Y-93076000D02*
X163066000Y-93076000D01*
X164060000Y-90356000D02*
X161106000Y-90356000D01*
X169176000Y-89715000D02*
X161024000Y-89715000D01*
X164060000Y-89915000D02*
X161039000Y-89915000D01*
X164060000Y-90436000D02*
X161124000Y-90436000D01*
X164060000Y-90396000D02*
X161115000Y-90396000D01*
X169220000Y-89515000D02*
G75*
G03*
X169220000Y-89515000I-4120000J0D01*
G01*
X124360000Y-139160000D02*
X127100000Y-139160000D01*
X125730000Y-131850000D02*
X125730000Y-132620000D01*
X127100000Y-139160000D02*
X127100000Y-132620000D01*
X127100000Y-132620000D02*
X124360000Y-132620000D01*
X124360000Y-132620000D02*
X124360000Y-139160000D01*
X125730000Y-139930000D02*
X125730000Y-139160000D01*
X130910000Y-164370000D02*
X128170000Y-164370000D01*
X128170000Y-170910000D02*
X130910000Y-170910000D01*
X129540000Y-163600000D02*
X129540000Y-164370000D01*
X129540000Y-171680000D02*
X129540000Y-170910000D01*
X130910000Y-170910000D02*
X130910000Y-164370000D01*
X128170000Y-164370000D02*
X128170000Y-170910000D01*
X123190000Y-173760000D02*
X123190000Y-174530000D01*
X121820000Y-181070000D02*
X124560000Y-181070000D01*
X121820000Y-174530000D02*
X121820000Y-181070000D01*
X124560000Y-181070000D02*
X124560000Y-174530000D01*
X124560000Y-174530000D02*
X121820000Y-174530000D01*
X123190000Y-181840000D02*
X123190000Y-181070000D01*
D14*
X147790000Y-176530000D02*
X148840000Y-175780000D01*
X148840000Y-175780000D02*
X148840000Y-177230000D01*
X148840000Y-177230000D02*
X147790000Y-176530000D01*
D15*
X147590000Y-175480000D02*
X147890000Y-175480000D01*
X147890000Y-175480000D02*
X147890000Y-177580000D01*
X147890000Y-177580000D02*
X147590000Y-177580000D01*
X147590000Y-177580000D02*
X147590000Y-175480000D01*
G36*
X147890000Y-177580000D02*
G01*
X147590000Y-177580000D01*
X147590000Y-175480000D01*
X147890000Y-175480000D01*
X147890000Y-177580000D01*
G37*
X147890000Y-177580000D02*
X147590000Y-177580000D01*
X147590000Y-175480000D01*
X147890000Y-175480000D01*
X147890000Y-177580000D01*
D13*
X168330000Y-101815000D02*
X168330000Y-103325000D01*
X165060000Y-101815000D02*
X165060000Y-106456000D01*
X165060000Y-106456000D02*
X175300000Y-106456000D01*
X165060000Y-101815000D02*
X175300000Y-101815000D01*
X175300000Y-101815000D02*
X175300000Y-106456000D01*
X172031000Y-101815000D02*
X172031000Y-103325000D01*
X165060000Y-103325000D02*
X175300000Y-103325000D01*
X135790000Y-144680000D02*
X135790000Y-149920000D01*
X138530000Y-144680000D02*
X135790000Y-144680000D01*
X138530000Y-144680000D02*
X138530000Y-149920000D01*
X138530000Y-149920000D02*
X135790000Y-149920000D01*
X135790000Y-152300000D02*
X135790000Y-157540000D01*
X138530000Y-157540000D02*
X135790000Y-157540000D01*
X138530000Y-152300000D02*
X135790000Y-152300000D01*
X138530000Y-152300000D02*
X138530000Y-157540000D01*
X132620000Y-125830000D02*
X139160000Y-125830000D01*
X131850000Y-124460000D02*
X132620000Y-124460000D01*
X139160000Y-125830000D02*
X139160000Y-123090000D01*
X139160000Y-123090000D02*
X132620000Y-123090000D01*
X139930000Y-124460000D02*
X139160000Y-124460000D01*
X132620000Y-123090000D02*
X132620000Y-125830000D01*
X109120000Y-118840000D02*
X111860000Y-118840000D01*
X110490000Y-119610000D02*
X110490000Y-118840000D01*
X111860000Y-118840000D02*
X111860000Y-112300000D01*
X111860000Y-112300000D02*
X109120000Y-112300000D01*
X109120000Y-112300000D02*
X109120000Y-118840000D01*
X110490000Y-111530000D02*
X110490000Y-112300000D01*
X155670000Y-82450000D02*
X149130000Y-82450000D01*
X149130000Y-85190000D02*
X155670000Y-85190000D01*
X148360000Y-83820000D02*
X149130000Y-83820000D01*
X156440000Y-83820000D02*
X155670000Y-83820000D01*
X155670000Y-85190000D02*
X155670000Y-82450000D01*
X149130000Y-82450000D02*
X149130000Y-85190000D01*
X107912000Y-86510000D02*
X109450000Y-86510000D01*
X111530000Y-86470000D02*
X113066000Y-86470000D01*
X111530000Y-84989000D02*
X112494000Y-84989000D01*
X108315000Y-85229000D02*
X109450000Y-85229000D01*
X111530000Y-84909000D02*
X112427000Y-84909000D01*
X107914000Y-86470000D02*
X109450000Y-86470000D01*
X111530000Y-84749000D02*
X112275000Y-84749000D01*
X107929000Y-86310000D02*
X109450000Y-86310000D01*
X110206000Y-84029000D02*
X110774000Y-84029000D01*
X107999000Y-85950000D02*
X109450000Y-85950000D01*
X109479000Y-84229000D02*
X111501000Y-84229000D01*
X111530000Y-86070000D02*
X113010000Y-86070000D01*
X108990000Y-84509000D02*
X111990000Y-84509000D01*
X111530000Y-85549000D02*
X112838000Y-85549000D01*
X111530000Y-85990000D02*
X112991000Y-85990000D01*
X108125000Y-85589000D02*
X109450000Y-85589000D01*
X107979000Y-86030000D02*
X109450000Y-86030000D01*
X111530000Y-85269000D02*
X112690000Y-85269000D01*
X109015000Y-89434775D02*
X109015000Y-88934775D01*
X108395000Y-85109000D02*
X109450000Y-85109000D01*
X108626000Y-84829000D02*
X109450000Y-84829000D01*
X108791000Y-84669000D02*
X109450000Y-84669000D01*
X111530000Y-84629000D02*
X112143000Y-84629000D01*
X109575000Y-84189000D02*
X111405000Y-84189000D01*
X111530000Y-86430000D02*
X113063000Y-86430000D01*
X108765000Y-89184775D02*
X109265000Y-89184775D01*
X109813000Y-84109000D02*
X111167000Y-84109000D01*
X109239000Y-84349000D02*
X111741000Y-84349000D01*
X108022000Y-85869000D02*
X109450000Y-85869000D01*
X108425000Y-85069000D02*
X109450000Y-85069000D01*
X111530000Y-84869000D02*
X112391000Y-84869000D01*
X108885000Y-84589000D02*
X112095000Y-84589000D01*
X111530000Y-86190000D02*
X113033000Y-86190000D01*
X111530000Y-85829000D02*
X112945000Y-85829000D01*
X111530000Y-85229000D02*
X112665000Y-85229000D01*
X107921000Y-86390000D02*
X109450000Y-86390000D01*
X109171000Y-84389000D02*
X111809000Y-84389000D01*
X111530000Y-84709000D02*
X112233000Y-84709000D01*
X111530000Y-85869000D02*
X112958000Y-85869000D01*
X111530000Y-86150000D02*
X113026000Y-86150000D01*
X108341000Y-85189000D02*
X109450000Y-85189000D01*
X107925000Y-86350000D02*
X109450000Y-86350000D01*
X107934000Y-86270000D02*
X109450000Y-86270000D01*
X108486000Y-84989000D02*
X109450000Y-84989000D01*
X111530000Y-84789000D02*
X112316000Y-84789000D01*
X107940000Y-86230000D02*
X109450000Y-86230000D01*
X111530000Y-85589000D02*
X112855000Y-85589000D01*
X108553000Y-84909000D02*
X109450000Y-84909000D01*
X111530000Y-84949000D02*
X112461000Y-84949000D01*
X108455000Y-85029000D02*
X109450000Y-85029000D01*
X108161000Y-85509000D02*
X109450000Y-85509000D01*
X111530000Y-85189000D02*
X112639000Y-85189000D01*
X108108000Y-85629000D02*
X109450000Y-85629000D01*
X108290000Y-85269000D02*
X109450000Y-85269000D01*
X107989000Y-85990000D02*
X109450000Y-85990000D01*
X111530000Y-86350000D02*
X113055000Y-86350000D01*
X111530000Y-85349000D02*
X112737000Y-85349000D01*
X107917000Y-86430000D02*
X109450000Y-86430000D01*
X109685000Y-84149000D02*
X111295000Y-84149000D01*
X108705000Y-84749000D02*
X109450000Y-84749000D01*
X111530000Y-85029000D02*
X112525000Y-85029000D01*
X111530000Y-85709000D02*
X112904000Y-85709000D01*
X108142000Y-85549000D02*
X109450000Y-85549000D01*
X107910000Y-86630000D02*
X109450000Y-86630000D01*
X109392000Y-84269000D02*
X111588000Y-84269000D01*
X111530000Y-86590000D02*
X113070000Y-86590000D01*
X111530000Y-86510000D02*
X113068000Y-86510000D01*
X111530000Y-85789000D02*
X112932000Y-85789000D01*
X109312000Y-84309000D02*
X111668000Y-84309000D01*
X108589000Y-84869000D02*
X109450000Y-84869000D01*
X111530000Y-86550000D02*
X113069000Y-86550000D01*
X108368000Y-85149000D02*
X109450000Y-85149000D01*
X109047000Y-84469000D02*
X111933000Y-84469000D01*
X107910000Y-86590000D02*
X109450000Y-86590000D01*
X108010000Y-85909000D02*
X109450000Y-85909000D01*
X111530000Y-85469000D02*
X112800000Y-85469000D01*
X109107000Y-84429000D02*
X111873000Y-84429000D01*
X111530000Y-86630000D02*
X113070000Y-86630000D01*
X109972000Y-84069000D02*
X111008000Y-84069000D01*
X111530000Y-85309000D02*
X112714000Y-85309000D01*
X111530000Y-85509000D02*
X112819000Y-85509000D01*
X108664000Y-84789000D02*
X109450000Y-84789000D01*
X108035000Y-85829000D02*
X109450000Y-85829000D01*
X108180000Y-85469000D02*
X109450000Y-85469000D01*
X111530000Y-86230000D02*
X113040000Y-86230000D01*
X111530000Y-86390000D02*
X113059000Y-86390000D01*
X107947000Y-86190000D02*
X109450000Y-86190000D01*
X108222000Y-85389000D02*
X109450000Y-85389000D01*
X111530000Y-85429000D02*
X112780000Y-85429000D01*
X108266000Y-85309000D02*
X109450000Y-85309000D01*
X111530000Y-84829000D02*
X112354000Y-84829000D01*
X108519000Y-84949000D02*
X109450000Y-84949000D01*
X108076000Y-85709000D02*
X109450000Y-85709000D01*
X107962000Y-86110000D02*
X109450000Y-86110000D01*
X111530000Y-85149000D02*
X112612000Y-85149000D01*
X111530000Y-85669000D02*
X112888000Y-85669000D01*
X111530000Y-84669000D02*
X112189000Y-84669000D01*
X108048000Y-85789000D02*
X109450000Y-85789000D01*
X111530000Y-85909000D02*
X112970000Y-85909000D01*
X111530000Y-86270000D02*
X113046000Y-86270000D01*
X111530000Y-85950000D02*
X112981000Y-85950000D01*
X108747000Y-84709000D02*
X109450000Y-84709000D01*
X108092000Y-85669000D02*
X109450000Y-85669000D01*
X111530000Y-85389000D02*
X112758000Y-85389000D01*
X108200000Y-85429000D02*
X109450000Y-85429000D01*
X107970000Y-86070000D02*
X109450000Y-86070000D01*
X108243000Y-85349000D02*
X109450000Y-85349000D01*
X108936000Y-84549000D02*
X112044000Y-84549000D01*
X111530000Y-85629000D02*
X112872000Y-85629000D01*
X108837000Y-84629000D02*
X109450000Y-84629000D01*
X111530000Y-85069000D02*
X112555000Y-85069000D01*
X107911000Y-86550000D02*
X109450000Y-86550000D01*
X111530000Y-86310000D02*
X113051000Y-86310000D01*
X111530000Y-86110000D02*
X113018000Y-86110000D01*
X111530000Y-85749000D02*
X112918000Y-85749000D01*
X111530000Y-86030000D02*
X113001000Y-86030000D01*
X111530000Y-85109000D02*
X112585000Y-85109000D01*
X107954000Y-86150000D02*
X109450000Y-86150000D01*
X108062000Y-85749000D02*
X109450000Y-85749000D01*
X113110000Y-86630000D02*
G75*
G03*
X113110000Y-86630000I-2620000J0D01*
G01*
X116900000Y-132180000D02*
X116900000Y-129440000D01*
X109160000Y-132180000D02*
X109160000Y-129440000D01*
X116900000Y-129440000D02*
X109160000Y-129440000D01*
X116900000Y-132180000D02*
X109160000Y-132180000D01*
X140870000Y-149130000D02*
X140870000Y-155670000D01*
X142240000Y-156440000D02*
X142240000Y-155670000D01*
X142240000Y-148360000D02*
X142240000Y-149130000D01*
X140870000Y-155670000D02*
X143610000Y-155670000D01*
X143610000Y-149130000D02*
X140870000Y-149130000D01*
X143610000Y-155670000D02*
X143610000Y-149130000D01*
X116700000Y-91500000D02*
X119440000Y-91500000D01*
X116700000Y-83760000D02*
X119440000Y-83760000D01*
X116700000Y-91500000D02*
X116700000Y-83760000D01*
X119440000Y-91500000D02*
X119440000Y-83760000D01*
X116940000Y-112300000D02*
X114200000Y-112300000D01*
X115570000Y-119610000D02*
X115570000Y-118840000D01*
X114200000Y-118840000D02*
X116940000Y-118840000D01*
X114200000Y-112300000D02*
X114200000Y-118840000D01*
X115570000Y-111530000D02*
X115570000Y-112300000D01*
X116940000Y-118840000D02*
X116940000Y-112300000D01*
X132620000Y-119480000D02*
X139160000Y-119480000D01*
X132620000Y-116740000D02*
X132620000Y-119480000D01*
X139930000Y-118110000D02*
X139160000Y-118110000D01*
X131850000Y-118110000D02*
X132620000Y-118110000D01*
X139160000Y-119480000D02*
X139160000Y-116740000D01*
X139160000Y-116740000D02*
X132620000Y-116740000D01*
X144880000Y-100390000D02*
X142140000Y-100390000D01*
X144880000Y-95150000D02*
X144880000Y-100390000D01*
X142140000Y-95150000D02*
X142140000Y-100390000D01*
X144880000Y-95150000D02*
X142140000Y-95150000D01*
D16*
X121190000Y-113070000D02*
X125190000Y-113070000D01*
X125190000Y-118070000D02*
X121190000Y-118070000D01*
D10*
X118990000Y-113570000D02*
G75*
G03*
X118990000Y-113570000I-100000J0D01*
G01*
D13*
X99060000Y-128040000D02*
X99060000Y-128810000D01*
X97690000Y-135350000D02*
X100430000Y-135350000D01*
X100430000Y-135350000D02*
X100430000Y-128810000D01*
X97690000Y-128810000D02*
X97690000Y-135350000D01*
X99060000Y-136120000D02*
X99060000Y-135350000D01*
X100430000Y-128810000D02*
X97690000Y-128810000D01*
X102770000Y-118205000D02*
X105510000Y-118205000D01*
X104140000Y-110895000D02*
X104140000Y-111665000D01*
X102770000Y-111665000D02*
X102770000Y-118205000D01*
X105510000Y-118205000D02*
X105510000Y-111665000D01*
X104140000Y-118975000D02*
X104140000Y-118205000D01*
X105510000Y-111665000D02*
X102770000Y-111665000D01*
D14*
X144210000Y-89920000D02*
X143510000Y-90970000D01*
X142760000Y-89920000D02*
X144210000Y-89920000D01*
X143510000Y-90970000D02*
X142760000Y-89920000D01*
D15*
X142460000Y-91170000D02*
X142460000Y-90870000D01*
X142460000Y-90870000D02*
X144560000Y-90870000D01*
X144560000Y-90870000D02*
X144560000Y-91170000D01*
X144560000Y-91170000D02*
X142460000Y-91170000D01*
G36*
X144560000Y-91170000D02*
G01*
X142460000Y-91170000D01*
X142460000Y-90870000D01*
X144560000Y-90870000D01*
X144560000Y-91170000D01*
G37*
X144560000Y-91170000D02*
X142460000Y-91170000D01*
X142460000Y-90870000D01*
X144560000Y-90870000D01*
X144560000Y-91170000D01*
D13*
X135710000Y-178940000D02*
X135710000Y-179270000D01*
X135710000Y-176660000D02*
X135710000Y-176330000D01*
X136610000Y-176330000D02*
X136610000Y-179270000D01*
X136490000Y-176330000D02*
X136490000Y-179270000D01*
X141150000Y-179270000D02*
X141150000Y-178940000D01*
X141150000Y-176330000D02*
X141150000Y-176660000D01*
X136730000Y-176330000D02*
X136730000Y-179270000D01*
X135710000Y-179270000D02*
X141150000Y-179270000D01*
X135710000Y-176330000D02*
X141150000Y-176330000D01*
X130990000Y-87510000D02*
X132490000Y-87510000D01*
X132490000Y-88200000D02*
X133590000Y-88200000D01*
X132490000Y-97220000D02*
X137615000Y-97220000D01*
X132490000Y-97910000D02*
X132490000Y-97220000D01*
X130990000Y-97910000D02*
X132490000Y-97910000D01*
X132490000Y-87510000D02*
X132490000Y-88200000D01*
X104575000Y-169365000D02*
X104575000Y-174805000D01*
X107515000Y-170145000D02*
X104575000Y-170145000D01*
X104575000Y-174805000D02*
X104905000Y-174805000D01*
X107515000Y-174805000D02*
X107185000Y-174805000D01*
X104905000Y-169365000D02*
X104575000Y-169365000D01*
X107515000Y-169365000D02*
X107515000Y-174805000D01*
X107515000Y-170385000D02*
X104575000Y-170385000D01*
X107515000Y-170265000D02*
X104575000Y-170265000D01*
X107185000Y-169365000D02*
X107515000Y-169365000D01*
D14*
X148840000Y-182310000D02*
X147790000Y-181610000D01*
X147790000Y-181610000D02*
X148840000Y-180860000D01*
X148840000Y-180860000D02*
X148840000Y-182310000D01*
D15*
X147590000Y-180560000D02*
X147890000Y-180560000D01*
X147890000Y-180560000D02*
X147890000Y-182660000D01*
X147890000Y-182660000D02*
X147590000Y-182660000D01*
X147590000Y-182660000D02*
X147590000Y-180560000D01*
G36*
X147890000Y-182660000D02*
G01*
X147590000Y-182660000D01*
X147590000Y-180560000D01*
X147890000Y-180560000D01*
X147890000Y-182660000D01*
G37*
X147890000Y-182660000D02*
X147590000Y-182660000D01*
X147590000Y-180560000D01*
X147890000Y-180560000D01*
X147890000Y-182660000D01*
D13*
X132180000Y-139160000D02*
X132180000Y-132620000D01*
X129440000Y-139160000D02*
X132180000Y-139160000D01*
X132180000Y-132620000D02*
X129440000Y-132620000D01*
X130810000Y-131850000D02*
X130810000Y-132620000D01*
X129440000Y-132620000D02*
X129440000Y-139160000D01*
X130810000Y-139930000D02*
X130810000Y-139160000D01*
X126270000Y-104240000D02*
X132810000Y-104240000D01*
X132810000Y-101500000D02*
X126270000Y-101500000D01*
X125500000Y-102870000D02*
X126270000Y-102870000D01*
X133580000Y-102870000D02*
X132810000Y-102870000D01*
X126270000Y-101500000D02*
X126270000Y-104240000D01*
X132810000Y-104240000D02*
X132810000Y-101500000D01*
X142240000Y-133120000D02*
X142240000Y-133890000D01*
X142240000Y-141200000D02*
X142240000Y-140430000D01*
X143610000Y-140430000D02*
X143610000Y-133890000D01*
X140870000Y-140430000D02*
X143610000Y-140430000D01*
X140870000Y-133890000D02*
X140870000Y-140430000D01*
X143610000Y-133890000D02*
X140870000Y-133890000D01*
X136730000Y-161090000D02*
X136730000Y-164030000D01*
X135710000Y-164030000D02*
X141150000Y-164030000D01*
X136490000Y-161090000D02*
X136490000Y-164030000D01*
X141150000Y-164030000D02*
X141150000Y-163700000D01*
X136610000Y-161090000D02*
X136610000Y-164030000D01*
X135710000Y-161090000D02*
X141150000Y-161090000D01*
X141150000Y-161090000D02*
X141150000Y-161420000D01*
X135710000Y-163700000D02*
X135710000Y-164030000D01*
X135710000Y-161420000D02*
X135710000Y-161090000D01*
X118340000Y-102870000D02*
X117570000Y-102870000D01*
X111030000Y-101500000D02*
X111030000Y-104240000D01*
X117570000Y-104240000D02*
X117570000Y-101500000D01*
X110260000Y-102870000D02*
X111030000Y-102870000D01*
X117570000Y-101500000D02*
X111030000Y-101500000D01*
X111030000Y-104240000D02*
X117570000Y-104240000D01*
X111990000Y-96261000D02*
X110783000Y-96261000D01*
X115034000Y-96621000D02*
X114070000Y-96621000D01*
X113835000Y-97461000D02*
X112225000Y-97461000D01*
X111990000Y-96661000D02*
X111059000Y-96661000D01*
X111990000Y-95340000D02*
X110474000Y-95340000D01*
X114413000Y-97181000D02*
X111647000Y-97181000D01*
X115277000Y-96261000D02*
X114070000Y-96261000D01*
X111990000Y-96941000D02*
X111331000Y-96941000D01*
X111990000Y-96621000D02*
X111026000Y-96621000D01*
X115125000Y-96501000D02*
X114070000Y-96501000D01*
X111990000Y-96901000D02*
X111287000Y-96901000D01*
X111990000Y-95420000D02*
X110487000Y-95420000D01*
X115395000Y-96021000D02*
X114070000Y-96021000D01*
X111990000Y-96301000D02*
X110806000Y-96301000D01*
X114931000Y-96741000D02*
X114070000Y-96741000D01*
X114281000Y-97261000D02*
X111779000Y-97261000D01*
X111990000Y-95701000D02*
X110550000Y-95701000D01*
X114473000Y-97141000D02*
X111587000Y-97141000D01*
X115428000Y-95941000D02*
X114070000Y-95941000D01*
X111990000Y-96781000D02*
X111166000Y-96781000D01*
X111990000Y-95781000D02*
X110575000Y-95781000D01*
X111990000Y-96861000D02*
X111245000Y-96861000D01*
X114815000Y-96861000D02*
X114070000Y-96861000D01*
X115472000Y-95821000D02*
X114070000Y-95821000D01*
X115595000Y-95260000D02*
X114070000Y-95260000D01*
X114967000Y-96701000D02*
X114070000Y-96701000D01*
X115359000Y-96101000D02*
X114070000Y-96101000D01*
X111990000Y-95620000D02*
X110529000Y-95620000D01*
X114683000Y-96981000D02*
X114070000Y-96981000D01*
X111990000Y-95901000D02*
X110616000Y-95901000D01*
X114729000Y-96941000D02*
X114070000Y-96941000D01*
X114894000Y-96781000D02*
X114070000Y-96781000D01*
X111990000Y-95741000D02*
X110562000Y-95741000D01*
X111990000Y-95140000D02*
X110454000Y-95140000D01*
X115609000Y-95060000D02*
X114070000Y-95060000D01*
X114755000Y-92425225D02*
X114255000Y-92425225D01*
X115541000Y-95580000D02*
X114070000Y-95580000D01*
X111990000Y-95580000D02*
X110519000Y-95580000D01*
X111990000Y-95380000D02*
X110480000Y-95380000D01*
X111990000Y-96221000D02*
X110762000Y-96221000D01*
X115095000Y-96541000D02*
X114070000Y-96541000D01*
X115510000Y-95701000D02*
X114070000Y-95701000D01*
X111990000Y-96181000D02*
X110740000Y-96181000D01*
X115591000Y-95300000D02*
X114070000Y-95300000D01*
X115586000Y-95340000D02*
X114070000Y-95340000D01*
X114584000Y-97061000D02*
X111476000Y-97061000D01*
X115610000Y-95020000D02*
X114070000Y-95020000D01*
X111990000Y-96461000D02*
X110908000Y-96461000D01*
X115458000Y-95861000D02*
X114070000Y-95861000D01*
X111990000Y-95460000D02*
X110494000Y-95460000D01*
X114349000Y-97221000D02*
X111711000Y-97221000D01*
X111990000Y-96341000D02*
X110830000Y-96341000D01*
X115179000Y-96421000D02*
X114070000Y-96421000D01*
X114128000Y-97341000D02*
X111932000Y-97341000D01*
X115610000Y-94980000D02*
X114070000Y-94980000D01*
X111990000Y-95861000D02*
X110602000Y-95861000D01*
X114041000Y-97381000D02*
X112019000Y-97381000D01*
X111990000Y-94980000D02*
X110450000Y-94980000D01*
X111990000Y-96381000D02*
X110855000Y-96381000D01*
X111990000Y-95941000D02*
X110632000Y-95941000D01*
X111990000Y-96101000D02*
X110701000Y-96101000D01*
X115001000Y-96661000D02*
X114070000Y-96661000D01*
X115566000Y-95460000D02*
X114070000Y-95460000D01*
X115298000Y-96221000D02*
X114070000Y-96221000D01*
X111990000Y-95540000D02*
X110510000Y-95540000D01*
X111990000Y-96141000D02*
X110720000Y-96141000D01*
X115580000Y-95380000D02*
X114070000Y-95380000D01*
X115412000Y-95981000D02*
X114070000Y-95981000D01*
X115573000Y-95420000D02*
X114070000Y-95420000D01*
X111990000Y-96541000D02*
X110965000Y-96541000D01*
X115065000Y-96581000D02*
X114070000Y-96581000D01*
X115498000Y-95741000D02*
X114070000Y-95741000D01*
X111990000Y-95300000D02*
X110469000Y-95300000D01*
X111990000Y-96981000D02*
X111377000Y-96981000D01*
X115550000Y-95540000D02*
X114070000Y-95540000D01*
X111990000Y-95660000D02*
X110539000Y-95660000D01*
X111990000Y-95981000D02*
X110648000Y-95981000D01*
X111990000Y-96501000D02*
X110935000Y-96501000D01*
X115230000Y-96341000D02*
X114070000Y-96341000D01*
X111990000Y-96741000D02*
X111129000Y-96741000D01*
X115603000Y-95180000D02*
X114070000Y-95180000D01*
X115485000Y-95781000D02*
X114070000Y-95781000D01*
X113548000Y-97541000D02*
X112512000Y-97541000D01*
X111990000Y-95821000D02*
X110588000Y-95821000D01*
X114505000Y-92175225D02*
X114505000Y-92675225D01*
X111990000Y-96701000D02*
X111093000Y-96701000D01*
X113945000Y-97421000D02*
X112115000Y-97421000D01*
X115152000Y-96461000D02*
X114070000Y-96461000D01*
X111990000Y-95260000D02*
X110465000Y-95260000D01*
X111990000Y-95220000D02*
X110461000Y-95220000D01*
X115606000Y-95140000D02*
X114070000Y-95140000D01*
X113707000Y-97501000D02*
X112353000Y-97501000D01*
X115378000Y-96061000D02*
X114070000Y-96061000D01*
X114208000Y-97301000D02*
X111852000Y-97301000D01*
X115558000Y-95500000D02*
X114070000Y-95500000D01*
X113314000Y-97581000D02*
X112746000Y-97581000D01*
X111990000Y-95500000D02*
X110502000Y-95500000D01*
X115254000Y-96301000D02*
X114070000Y-96301000D01*
X115531000Y-95620000D02*
X114070000Y-95620000D01*
X115599000Y-95220000D02*
X114070000Y-95220000D01*
X111990000Y-96821000D02*
X111204000Y-96821000D01*
X111990000Y-95100000D02*
X110452000Y-95100000D01*
X111990000Y-96021000D02*
X110665000Y-96021000D01*
X115608000Y-95100000D02*
X114070000Y-95100000D01*
X111990000Y-96421000D02*
X110881000Y-96421000D01*
X115521000Y-95660000D02*
X114070000Y-95660000D01*
X115444000Y-95901000D02*
X114070000Y-95901000D01*
X115320000Y-96181000D02*
X114070000Y-96181000D01*
X114773000Y-96901000D02*
X114070000Y-96901000D01*
X114530000Y-97101000D02*
X111530000Y-97101000D01*
X111990000Y-96581000D02*
X110995000Y-96581000D01*
X111990000Y-95060000D02*
X110451000Y-95060000D01*
X115340000Y-96141000D02*
X114070000Y-96141000D01*
X114635000Y-97021000D02*
X111425000Y-97021000D01*
X111990000Y-95020000D02*
X110450000Y-95020000D01*
X115205000Y-96381000D02*
X114070000Y-96381000D01*
X111990000Y-95180000D02*
X110457000Y-95180000D01*
X111990000Y-96061000D02*
X110682000Y-96061000D01*
X114856000Y-96821000D02*
X114070000Y-96821000D01*
X115650000Y-94980000D02*
G75*
G03*
X115650000Y-94980000I-2620000J0D01*
G01*
X111030000Y-152500000D02*
X117570000Y-152500000D01*
X117570000Y-152500000D02*
X117570000Y-149760000D01*
X118340000Y-151130000D02*
X117570000Y-151130000D01*
X111030000Y-149760000D02*
X111030000Y-152500000D01*
X117570000Y-149760000D02*
X111030000Y-149760000D01*
X110260000Y-151130000D02*
X111030000Y-151130000D01*
X123090000Y-155670000D02*
X125830000Y-155670000D01*
X124460000Y-156440000D02*
X124460000Y-155670000D01*
X124460000Y-148360000D02*
X124460000Y-149130000D01*
X125830000Y-155670000D02*
X125830000Y-149130000D01*
X123090000Y-149130000D02*
X123090000Y-155670000D01*
X125830000Y-149130000D02*
X123090000Y-149130000D01*
X148585000Y-110495000D02*
X148585000Y-107895000D01*
X148585000Y-107895000D02*
X151185000Y-107895000D01*
X145985000Y-110495000D02*
X145985000Y-158815000D01*
X145985000Y-107895000D02*
X147315000Y-107895000D01*
X145985000Y-109225000D02*
X145985000Y-107895000D01*
X151185000Y-107895000D02*
X151185000Y-158815000D01*
X145985000Y-110495000D02*
X148585000Y-110495000D01*
X145985000Y-158815000D02*
X151185000Y-158815000D01*
X133890000Y-82450000D02*
X133890000Y-85190000D01*
X140430000Y-85190000D02*
X140430000Y-82450000D01*
X140430000Y-82450000D02*
X133890000Y-82450000D01*
X141200000Y-83820000D02*
X140430000Y-83820000D01*
X133890000Y-85190000D02*
X140430000Y-85190000D01*
X133120000Y-83820000D02*
X133890000Y-83820000D01*
X132180000Y-149130000D02*
X129440000Y-149130000D01*
X132180000Y-155670000D02*
X132180000Y-149130000D01*
X129440000Y-155670000D02*
X132180000Y-155670000D01*
X130810000Y-148360000D02*
X130810000Y-149130000D01*
X129440000Y-149130000D02*
X129440000Y-155670000D01*
X130810000Y-156440000D02*
X130810000Y-155670000D01*
X135890000Y-139930000D02*
X135890000Y-139160000D01*
X137260000Y-139160000D02*
X137260000Y-132620000D01*
X135890000Y-131850000D02*
X135890000Y-132620000D01*
X137260000Y-132620000D02*
X134520000Y-132620000D01*
X134520000Y-139160000D02*
X137260000Y-139160000D01*
X134520000Y-132620000D02*
X134520000Y-139160000D01*
X102770000Y-135350000D02*
X105510000Y-135350000D01*
X102770000Y-128810000D02*
X102770000Y-135350000D01*
X104140000Y-128040000D02*
X104140000Y-128810000D01*
X105510000Y-128810000D02*
X102770000Y-128810000D01*
X104140000Y-136120000D02*
X104140000Y-135350000D01*
X105510000Y-135350000D02*
X105510000Y-128810000D01*
X97690000Y-147860000D02*
X97690000Y-154400000D01*
X99060000Y-155170000D02*
X99060000Y-154400000D01*
X100430000Y-154400000D02*
X100430000Y-147860000D01*
X100430000Y-147860000D02*
X97690000Y-147860000D01*
X99060000Y-147090000D02*
X99060000Y-147860000D01*
X97690000Y-154400000D02*
X100430000Y-154400000D01*
X177260000Y-83780000D02*
X177260000Y-94020000D01*
X177260000Y-87050000D02*
X175750000Y-87050000D01*
X177260000Y-90751000D02*
X175750000Y-90751000D01*
X172619000Y-83780000D02*
X172619000Y-94020000D01*
X177260000Y-94020000D02*
X172619000Y-94020000D01*
X175750000Y-83780000D02*
X175750000Y-94020000D01*
X177260000Y-83780000D02*
X172619000Y-83780000D01*
X135710000Y-166170000D02*
X141150000Y-166170000D01*
X136610000Y-166170000D02*
X136610000Y-169110000D01*
X141150000Y-166170000D02*
X141150000Y-166500000D01*
X135710000Y-166500000D02*
X135710000Y-166170000D01*
X141150000Y-169110000D02*
X141150000Y-168780000D01*
X135710000Y-168780000D02*
X135710000Y-169110000D01*
X135710000Y-169110000D02*
X141150000Y-169110000D01*
X136730000Y-166170000D02*
X136730000Y-169110000D01*
X136490000Y-166170000D02*
X136490000Y-169110000D01*
X154200000Y-97910000D02*
X157400000Y-94710000D01*
X150600000Y-87510000D02*
X154200000Y-87510000D01*
X150600000Y-97910000D02*
X147400000Y-94710000D01*
X154200000Y-87510000D02*
X157400000Y-90710000D01*
X154200000Y-97910000D02*
X150600000Y-97910000D01*
X150600000Y-87510000D02*
X147400000Y-90710000D01*
X109160000Y-127100000D02*
X109160000Y-124360000D01*
X116900000Y-124360000D02*
X109160000Y-124360000D01*
X116900000Y-127100000D02*
X109160000Y-127100000D01*
X116900000Y-127100000D02*
X116900000Y-124360000D01*
X184150000Y-175260000D02*
X156210000Y-175260000D01*
X156210000Y-175260000D02*
X156210000Y-109220000D01*
X156210000Y-109220000D02*
X184150000Y-109220000D01*
X184150000Y-109220000D02*
X184150000Y-175260000D01*
X112930000Y-135840000D02*
X112930000Y-146120000D01*
X118230000Y-146120000D02*
X118230000Y-135840000D01*
X114580000Y-135840000D02*
X112930000Y-135840000D01*
X118230000Y-135840000D02*
X116580000Y-135840000D01*
X112930000Y-146120000D02*
X118230000Y-146120000D01*
X114580000Y-135840000D02*
G75*
G03*
X116580000Y-135840000I1000000J0D01*
G01*
X139700000Y-103910000D02*
X139700000Y-104680000D01*
X138330000Y-104680000D02*
X138330000Y-111220000D01*
X138330000Y-111220000D02*
X141070000Y-111220000D01*
X141070000Y-104680000D02*
X138330000Y-104680000D01*
X141070000Y-111220000D02*
X141070000Y-104680000D01*
X139700000Y-111990000D02*
X139700000Y-111220000D01*
X129110000Y-106480000D02*
X129110000Y-109420000D01*
X128990000Y-106480000D02*
X128990000Y-109420000D01*
X128090000Y-109090000D02*
X128090000Y-109420000D01*
X133530000Y-106480000D02*
X133530000Y-106810000D01*
X133530000Y-109420000D02*
X133530000Y-109090000D01*
X128090000Y-106810000D02*
X128090000Y-106480000D01*
X128870000Y-106480000D02*
X128870000Y-109420000D01*
X128090000Y-106480000D02*
X133530000Y-106480000D01*
X128090000Y-109420000D02*
X133530000Y-109420000D01*
%LPC*%
D17*
X182880000Y-105410000D03*
X182880000Y-92710000D03*
X182880000Y-99060000D03*
X172720000Y-182880000D03*
X157480000Y-182880000D03*
X165100000Y-182880000D03*
D18*
X115587500Y-182680000D03*
D19*
X115587500Y-157680000D03*
D20*
X134620000Y-172720000D03*
D21*
X142240000Y-172720000D03*
D22*
X165100000Y-88265000D03*
D23*
X165100000Y-90765000D03*
X125730000Y-140970000D03*
D24*
X125730000Y-130810000D03*
D23*
X129540000Y-172720000D03*
D24*
X129540000Y-162560000D03*
D23*
X123190000Y-182880000D03*
D24*
X123190000Y-172720000D03*
D25*
X146540000Y-176530000D03*
X150640000Y-176530000D03*
D26*
X167640000Y-105085000D03*
D27*
X170180000Y-105085000D03*
X172720000Y-105085000D03*
D23*
X137160000Y-146050000D03*
X137160000Y-148550000D03*
D28*
X100330000Y-162560000D03*
D23*
X137160000Y-153670000D03*
X137160000Y-156170000D03*
X130810000Y-124460000D03*
D24*
X140970000Y-124460000D03*
D23*
X110490000Y-110490000D03*
D24*
X110490000Y-120650000D03*
D23*
X147320000Y-83820000D03*
D24*
X157480000Y-83820000D03*
D28*
X100330000Y-104140000D03*
D22*
X110490000Y-87630000D03*
D23*
X110490000Y-85630000D03*
D29*
X115530000Y-130810000D03*
X110530000Y-130810000D03*
D23*
X142240000Y-147320000D03*
D24*
X142240000Y-157480000D03*
D29*
X118070000Y-90130000D03*
X118070000Y-85130000D03*
D23*
X115570000Y-110490000D03*
D24*
X115570000Y-120650000D03*
D23*
X130810000Y-118110000D03*
D24*
X140970000Y-118110000D03*
D30*
X106045000Y-92075000D03*
D23*
X143510000Y-96520000D03*
X143510000Y-99020000D03*
D31*
X120715000Y-113665000D03*
X120715000Y-114935000D03*
X120715000Y-116205000D03*
X120715000Y-117475000D03*
X125665000Y-117475000D03*
X125665000Y-116205000D03*
X125665000Y-114935000D03*
X125665000Y-113665000D03*
D23*
X99060000Y-127000000D03*
D24*
X99060000Y-137160000D03*
D23*
X104140000Y-120015000D03*
D24*
X104140000Y-109855000D03*
D28*
X181610000Y-181610000D03*
X148590000Y-162560000D03*
D32*
X143510000Y-92220000D03*
X143510000Y-88120000D03*
D20*
X134620000Y-177800000D03*
D21*
X142240000Y-177800000D03*
D33*
X126165000Y-92710000D03*
D34*
X135315000Y-88900000D03*
X135315000Y-90170000D03*
X135315000Y-91440000D03*
X135315000Y-92710000D03*
X135315000Y-93980000D03*
X135315000Y-95250000D03*
X135315000Y-96520000D03*
D20*
X106045000Y-168275000D03*
D21*
X106045000Y-175895000D03*
D25*
X146540000Y-181610000D03*
X150640000Y-181610000D03*
D23*
X130810000Y-140970000D03*
D24*
X130810000Y-130810000D03*
D28*
X100330000Y-181610000D03*
D23*
X134620000Y-102870000D03*
D24*
X124460000Y-102870000D03*
D23*
X142240000Y-132080000D03*
D24*
X142240000Y-142240000D03*
D20*
X134620000Y-162560000D03*
D21*
X142240000Y-162560000D03*
D23*
X109220000Y-102870000D03*
D24*
X119380000Y-102870000D03*
D22*
X113030000Y-93980000D03*
D23*
X113030000Y-95980000D03*
D30*
X99060000Y-92075000D03*
D23*
X119380000Y-151130000D03*
D24*
X109220000Y-151130000D03*
D23*
X124460000Y-157480000D03*
D24*
X124460000Y-147320000D03*
D35*
X147315000Y-109225000D03*
D36*
X149855000Y-109225000D03*
X147315000Y-111765000D03*
X149855000Y-111765000D03*
X147315000Y-114305000D03*
X149855000Y-114305000D03*
X147315000Y-116845000D03*
X149855000Y-116845000D03*
X147315000Y-119385000D03*
X149855000Y-119385000D03*
X147315000Y-121925000D03*
X149855000Y-121925000D03*
X147315000Y-124465000D03*
X149855000Y-124465000D03*
X147315000Y-127005000D03*
X149855000Y-127005000D03*
X147315000Y-129545000D03*
X149855000Y-129545000D03*
X147315000Y-132085000D03*
X149855000Y-132085000D03*
X147315000Y-134625000D03*
X149855000Y-134625000D03*
X147315000Y-137165000D03*
X149855000Y-137165000D03*
X147315000Y-139705000D03*
X149855000Y-139705000D03*
X147315000Y-142245000D03*
X149855000Y-142245000D03*
X147315000Y-144785000D03*
X149855000Y-144785000D03*
X147315000Y-147325000D03*
X149855000Y-147325000D03*
X147315000Y-149865000D03*
X149855000Y-149865000D03*
X147315000Y-152405000D03*
X149855000Y-152405000D03*
X147315000Y-154945000D03*
X149855000Y-154945000D03*
X147315000Y-157485000D03*
X149855000Y-157485000D03*
D28*
X148590000Y-104140000D03*
D23*
X142240000Y-83820000D03*
D24*
X132080000Y-83820000D03*
D23*
X130810000Y-157480000D03*
D24*
X130810000Y-147320000D03*
D28*
X100330000Y-86360000D03*
X181610000Y-86360000D03*
D23*
X135890000Y-130810000D03*
D24*
X135890000Y-140970000D03*
D23*
X104140000Y-137160000D03*
D24*
X104140000Y-127000000D03*
D23*
X99060000Y-156210000D03*
D24*
X99060000Y-146050000D03*
D37*
X173990000Y-86360000D03*
D38*
X173990000Y-88900000D03*
X173990000Y-91440000D03*
D30*
X106045000Y-97790000D03*
D20*
X134620000Y-167640000D03*
D21*
X142240000Y-167640000D03*
D39*
X147900000Y-92710000D03*
X156900000Y-92710000D03*
D29*
X115530000Y-125730000D03*
X110530000Y-125730000D03*
D40*
X181610000Y-172720000D03*
X181610000Y-111760000D03*
X158750000Y-111760000D03*
X158750000Y-172720000D03*
D22*
X111770000Y-137170000D03*
D24*
X111770000Y-139710000D03*
X111770000Y-142250000D03*
X111770000Y-144790000D03*
X119390000Y-144790000D03*
X119390000Y-142250000D03*
X119390000Y-139710000D03*
X119390000Y-137170000D03*
D23*
X139700000Y-113030000D03*
D24*
X139700000Y-102870000D03*
D20*
X127000000Y-107950000D03*
D21*
X134620000Y-107950000D03*
D30*
X99060000Y-97790000D03*
M02*
